# MagicaVoxel @ Ephtracy

# group
o 

# material
mtllib asease.mtl
usemtl palette

# normals
vn -1 0 0
vn 1 0 0
vn 0 0 1
vn 0 0 -1
vn 0 -1 0
vn 0 1 0

# texcoords
vt 0.587891 0.5
vt 0.962891 0.5
vt 0.994141 0.5

# verts
v -1.6 1.1 0.1
v -1.6 1.1 0
v -1.6 1.7 0.1
v -1.6 1.7 0
v -1.5 0.9 0.1
v -1.5 0.9 0
v -1.5 1.1 0.1
v -1.5 1.1 0
v -1.5 1.7 0.1
v -1.5 1.7 0
v -1.5 1.8 0.1
v -1.5 1.8 0
v -1.4 0.6 0.1
v -1.4 0.6 0
v -1.4 0.9 0.1
v -1.4 0.9 0
v -1.4 1.8 0.1
v -1.4 1.8 0
v -1.4 1.9 0.1
v -1.4 1.9 0
v -1.3 0.5 0.1
v -1.3 0.5 0
v -1.3 0.6 0.1
v -1.3 0.6 0
v -1.3 1.9 0.1
v -1.3 1.9 0
v -1.3 2 0.1
v -1.3 2 0
v -0.9 0 0.1
v -0.9 0 0
v -0.9 0.3 0.1
v -0.9 0.3 0
v -0.8 0.3 0.1
v -0.8 0.3 0
v -0.8 0.5 0.1
v -0.8 0.5 0
v -0.7 0.5 0.1
v -0.7 0.5 0
v -0.7 0.6 0.1
v -0.7 0.6 0
v -0.6 0.6 0.1
v -0.6 0.6 0
v -0.6 0.7 0.1
v -0.6 0.7 0
v -0.5 0.7 0.1
v -0.5 0.7 0
v -0.5 0.8 0.1
v -0.5 0.8 0
v -0.4 0.8 0.1
v -0.4 0.8 0
v -0.4 0.9 0.1
v -0.4 0.9 0
v -0.3 0.9 0.1
v -0.3 0.9 0
v -0.3 1 0.1
v -0.3 1 0
v -0.2 1 0.1
v -0.2 1 0
v -0.2 1.1 0.1
v -0.2 1.1 0
v -0.1 0.1 0.1
v -0.1 0.1 0
v -0.1 0.2 0.1
v -0.1 0.2 0
v -0.1 1.1 0.1
v -0.1 1.1 0
v -0.1 1.2 0.1
v -0.1 1.2 0
v 0.1 1.2 0.1
v 0.1 1.2 0
v 0.1 1.3 0.1
v 0.1 1.3 0
v 0.2 0 0.1
v 0.2 0 0
v 0.2 0.1 0.1
v 0.2 0.1 0
v 0.3 1.3 0.1
v 0.3 1.3 0
v 0.3 1.4 0.1
v 0.3 1.4 0
v -1 0.5 0.1
v -1 0.5 0
v -1 0.7 0.1
v -1 0.7 0
v -0.9 0.7 0.1
v -0.9 0.7 0
v -0.9 0.9 0.1
v -0.9 0.9 0
v -0.9 1.9 0.1
v -0.9 1.9 0
v -0.9 2 0.1
v -0.9 2 0
v -0.8 0.9 0.1
v -0.8 0.9 0
v -0.8 1 0.1
v -0.8 1 0
v -0.8 1.8 0.1
v -0.8 1.8 0
v -0.8 1.9 0.1
v -0.8 1.9 0
v -0.7 1 0.1
v -0.7 1 0
v -0.7 1.8 0.1
v -0.7 1.8 0
v -0.5 0 0.1
v -0.5 0 0
v -0.5 0.1 0.1
v -0.5 0.1 0
v -0.2 0.1 0.1
v -0.2 0.1 0
v -0.2 0.2 0.1
v -0.2 0.2 0
v 0.9 0 0.1
v 0.9 0 0
v 0.9 0.1 0.1
v 0.9 0.1 0
v 1.1 0.1 0.1
v 1.1 0.1 0
v 1.1 0.2 0.1
v 1.1 0.2 0
v 1.2 1.3 0.1
v 1.2 1.3 0
v 1.2 1.4 0.1
v 1.2 1.4 0
v 1.3 0.2 0.1
v 1.3 0.2 0
v 1.3 0.3 0.1
v 1.3 0.3 0
v 1.3 1.2 0.1
v 1.3 1.2 0
v 1.3 1.3 0.1
v 1.3 1.3 0
v 1.4 0.3 0.1
v 1.4 0.3 0
v 1.4 0.4 0.1
v 1.4 0.4 0
v 1.4 1.1 0.1
v 1.4 1.1 0
v 1.4 1.2 0.1
v 1.4 1.2 0
v 1.5 0.4 0.1
v 1.5 0.4 0
v 1.5 1.1 0.1
v 1.5 1.1 0
v -1.6 1.1 0.1
v -1.6 1.7 0.1
v -1.5 0.9 0.1
v -1.5 1.1 0.1
v -1.5 1.2 0.1
v -1.5 1.6 0.1
v -1.5 1.7 0.1
v -1.5 1.8 0.1
v -1.4 0.6 0.1
v -1.4 0.9 0.1
v -1.4 1.2 0.1
v -1.4 1.6 0.1
v -1.4 1.7 0.1
v -1.4 1.8 0.1
v -1.4 1.9 0.1
v -1.3 0.5 0.1
v -1.3 0.6 0.1
v -1.3 0.7 0.1
v -1.3 0.9 0.1
v -1.3 1.3 0.1
v -1.3 1.6 0.1
v -1.3 1.7 0.1
v -1.3 1.8 0.1
v -1.3 1.9 0.1
v -1.3 2 0.1
v -1.2 0.6 0.1
v -1.2 0.7 0.1
v -1.2 1.3 0.1
v -1.2 1.6 0.1
v -1.2 1.7 0.1
v -1.2 1.8 0.1
v -1.2 1.9 0.1
v -1.1 0.6 0.1
v -1.1 0.8 0.1
v -1.1 1.6 0.1
v -1.1 1.7 0.1
v -1 0.5 0.1
v -1 0.7 0.1
v -1 0.8 0.1
v -1 1 0.1
v -1 1.8 0.1
v -1 1.9 0.1
v -0.9 0 0.1
v -0.9 0.3 0.1
v -0.9 0.7 0.1
v -0.9 0.9 0.1
v -0.9 1 0.1
v -0.9 1.1 0.1
v -0.9 1.7 0.1
v -0.9 1.8 0.1
v -0.9 1.9 0.1
v -0.9 2 0.1
v -0.8 0.1 0.1
v -0.8 0.2 0.1
v -0.8 0.3 0.1
v -0.8 0.5 0.1
v -0.8 0.9 0.1
v -0.8 1 0.1
v -0.8 1.1 0.1
v -0.8 1.7 0.1
v -0.8 1.8 0.1
v -0.8 1.9 0.1
v -0.7 0.2 0.1
v -0.7 0.4 0.1
v -0.7 0.5 0.1
v -0.7 0.6 0.1
v -0.7 1 0.1
v -0.7 1.8 0.1
v -0.6 0.1 0.1
v -0.6 0.2 0.1
v -0.6 0.4 0.1
v -0.6 0.5 0.1
v -0.6 0.6 0.1
v -0.6 0.7 0.1
v -0.5 0 0.1
v -0.5 0.1 0.1
v -0.5 0.5 0.1
v -0.5 0.6 0.1
v -0.5 0.7 0.1
v -0.5 0.8 0.1
v -0.4 0.6 0.1
v -0.4 0.7 0.1
v -0.4 0.8 0.1
v -0.4 0.9 0.1
v -0.3 0.2 0.1
v -0.3 0.3 0.1
v -0.3 0.7 0.1
v -0.3 0.8 0.1
v -0.3 0.9 0.1
v -0.3 1 0.1
v -0.2 0.1 0.1
v -0.2 0.2 0.1
v -0.2 0.8 0.1
v -0.2 0.9 0.1
v -0.2 1 0.1
v -0.2 1.1 0.1
v -0.1 0.1 0.1
v -0.1 0.2 0.1
v -0.1 0.9 0.1
v -0.1 1 0.1
v -0.1 1.1 0.1
v -0.1 1.2 0.1
v 0 0.2 0.1
v 0 0.3 0.1
v 0 1 0.1
v 0 1.1 0.1
v 0.1 1.2 0.1
v 0.1 1.3 0.1
v 0.2 0 0.1
v 0.2 0.1 0.1
v 0.2 0.9 0.1
v 0.2 1 0.1
v 0.2 1.1 0.1
v 0.2 1.2 0.1
v 0.3 0.1 0.1
v 0.3 0.2 0.1
v 0.3 0.9 0.1
v 0.3 1 0.1
v 0.3 1.1 0.1
v 0.3 1.3 0.1
v 0.3 1.4 0.1
v 0.4 1.2 0.1
v 0.4 1.3 0.1
v 0.8 0.1 0.1
v 0.8 0.2 0.1
v 0.8 1 0.1
v 0.8 1.1 0.1
v 0.9 0 0.1
v 0.9 0.1 0.1
v 1 0.2 0.1
v 1 0.3 0.1
v 1 0.8 0.1
v 1 1 0.1
v 1.1 0.1 0.1
v 1.1 0.2 0.1
v 1.1 1.2 0.1
v 1.1 1.3 0.1
v 1.2 0.3 0.1
v 1.2 0.4 0.1
v 1.2 0.8 0.1
v 1.2 1 0.1
v 1.2 1.1 0.1
v 1.2 1.2 0.1
v 1.2 1.3 0.1
v 1.2 1.4 0.1
v 1.3 0.2 0.1
v 1.3 0.3 0.1
v 1.3 0.4 0.1
v 1.3 0.5 0.1
v 1.3 1 0.1
v 1.3 1.1 0.1
v 1.3 1.2 0.1
v 1.3 1.3 0.1
v 1.4 0.3 0.1
v 1.4 0.4 0.1
v 1.4 0.5 0.1
v 1.4 1 0.1
v 1.4 1.1 0.1
v 1.4 1.2 0.1
v 1.5 0.4 0.1
v 1.5 1.1 0.1
v -1.6 1.1 0
v -1.6 1.7 0
v -1.5 0.9 0
v -1.5 1.1 0
v -1.5 1.2 0
v -1.5 1.6 0
v -1.5 1.7 0
v -1.5 1.8 0
v -1.4 0.6 0
v -1.4 0.9 0
v -1.4 1.2 0
v -1.4 1.6 0
v -1.4 1.7 0
v -1.4 1.8 0
v -1.4 1.9 0
v -1.3 0.5 0
v -1.3 0.6 0
v -1.3 0.7 0
v -1.3 0.9 0
v -1.3 1.3 0
v -1.3 1.6 0
v -1.3 1.7 0
v -1.3 1.8 0
v -1.3 1.9 0
v -1.3 2 0
v -1.2 0.6 0
v -1.2 0.7 0
v -1.2 1.3 0
v -1.2 1.6 0
v -1.2 1.7 0
v -1.2 1.8 0
v -1.2 1.9 0
v -1.1 0.6 0
v -1.1 0.8 0
v -1.1 1.6 0
v -1.1 1.7 0
v -1 0.5 0
v -1 0.7 0
v -1 0.8 0
v -1 1 0
v -1 1.8 0
v -1 1.9 0
v -0.9 0 0
v -0.9 0.3 0
v -0.9 0.7 0
v -0.9 0.9 0
v -0.9 1 0
v -0.9 1.1 0
v -0.9 1.7 0
v -0.9 1.8 0
v -0.9 1.9 0
v -0.9 2 0
v -0.8 0.1 0
v -0.8 0.2 0
v -0.8 0.3 0
v -0.8 0.5 0
v -0.8 0.9 0
v -0.8 1 0
v -0.8 1.1 0
v -0.8 1.7 0
v -0.8 1.8 0
v -0.8 1.9 0
v -0.7 0.2 0
v -0.7 0.4 0
v -0.7 0.5 0
v -0.7 0.6 0
v -0.7 1 0
v -0.7 1.8 0
v -0.6 0.1 0
v -0.6 0.2 0
v -0.6 0.4 0
v -0.6 0.5 0
v -0.6 0.6 0
v -0.6 0.7 0
v -0.5 0 0
v -0.5 0.1 0
v -0.5 0.5 0
v -0.5 0.6 0
v -0.5 0.7 0
v -0.5 0.8 0
v -0.4 0.6 0
v -0.4 0.7 0
v -0.4 0.8 0
v -0.4 0.9 0
v -0.3 0.2 0
v -0.3 0.3 0
v -0.3 0.7 0
v -0.3 0.8 0
v -0.3 0.9 0
v -0.3 1 0
v -0.2 0.1 0
v -0.2 0.2 0
v -0.2 0.8 0
v -0.2 0.9 0
v -0.2 1 0
v -0.2 1.1 0
v -0.1 0.1 0
v -0.1 0.2 0
v -0.1 0.9 0
v -0.1 1 0
v -0.1 1.1 0
v -0.1 1.2 0
v 0 0.2 0
v 0 0.3 0
v 0 1 0
v 0 1.1 0
v 0.1 1.2 0
v 0.1 1.3 0
v 0.2 0 0
v 0.2 0.1 0
v 0.2 0.9 0
v 0.2 1 0
v 0.2 1.1 0
v 0.2 1.2 0
v 0.3 0.1 0
v 0.3 0.2 0
v 0.3 0.9 0
v 0.3 1 0
v 0.3 1.1 0
v 0.3 1.3 0
v 0.3 1.4 0
v 0.4 1.2 0
v 0.4 1.3 0
v 0.8 0.1 0
v 0.8 0.2 0
v 0.8 1 0
v 0.8 1.1 0
v 0.9 0 0
v 0.9 0.1 0
v 1 0.2 0
v 1 0.3 0
v 1 0.8 0
v 1 1 0
v 1.1 0.1 0
v 1.1 0.2 0
v 1.1 1.2 0
v 1.1 1.3 0
v 1.2 0.3 0
v 1.2 0.4 0
v 1.2 0.8 0
v 1.2 1 0
v 1.2 1.1 0
v 1.2 1.2 0
v 1.2 1.3 0
v 1.2 1.4 0
v 1.3 0.2 0
v 1.3 0.3 0
v 1.3 0.4 0
v 1.3 0.5 0
v 1.3 1 0
v 1.3 1.1 0
v 1.3 1.2 0
v 1.3 1.3 0
v 1.4 0.3 0
v 1.4 0.4 0
v 1.4 0.5 0
v 1.4 1 0
v 1.4 1.1 0
v 1.4 1.2 0
v 1.5 0.4 0
v 1.5 1.1 0
v -0.9 0 0.1
v -0.5 0 0.1
v 0.2 0 0.1
v 0.9 0 0.1
v -0.9 0 0
v -0.5 0 0
v 0.2 0 0
v 0.9 0 0
v -0.5 0.1 0.1
v -0.2 0.1 0.1
v -0.1 0.1 0.1
v 0.2 0.1 0.1
v 0.9 0.1 0.1
v 1.1 0.1 0.1
v -0.5 0.1 0
v -0.2 0.1 0
v -0.1 0.1 0
v 0.2 0.1 0
v 0.9 0.1 0
v 1.1 0.1 0
v -0.2 0.2 0.1
v -0.1 0.2 0.1
v 1.1 0.2 0.1
v 1.3 0.2 0.1
v -0.2 0.2 0
v -0.1 0.2 0
v 1.1 0.2 0
v 1.3 0.2 0
v 1.3 0.3 0.1
v 1.4 0.3 0.1
v 1.3 0.3 0
v 1.4 0.3 0
v 1.4 0.4 0.1
v 1.5 0.4 0.1
v 1.4 0.4 0
v 1.5 0.4 0
v -1.3 0.5 0.1
v -1 0.5 0.1
v -1.3 0.5 0
v -1 0.5 0
v -1.4 0.6 0.1
v -1.3 0.6 0.1
v -1.4 0.6 0
v -1.3 0.6 0
v -1 0.7 0.1
v -0.9 0.7 0.1
v -1 0.7 0
v -0.9 0.7 0
v -1.5 0.9 0.1
v -1.4 0.9 0.1
v -0.9 0.9 0.1
v -0.8 0.9 0.1
v -1.5 0.9 0
v -1.4 0.9 0
v -0.9 0.9 0
v -0.8 0.9 0
v -0.8 1 0.1
v -0.7 1 0.1
v -0.8 1 0
v -0.7 1 0
v -1.6 1.1 0.1
v -1.5 1.1 0.1
v -1.6 1.1 0
v -1.5 1.1 0
v -0.9 0.3 0.1
v -0.8 0.3 0.1
v -0.9 0.3 0
v -0.8 0.3 0
v -0.8 0.5 0.1
v -0.7 0.5 0.1
v -0.8 0.5 0
v -0.7 0.5 0
v -0.7 0.6 0.1
v -0.6 0.6 0.1
v -0.7 0.6 0
v -0.6 0.6 0
v -0.6 0.7 0.1
v -0.5 0.7 0.1
v -0.6 0.7 0
v -0.5 0.7 0
v -0.5 0.8 0.1
v -0.4 0.8 0.1
v -0.5 0.8 0
v -0.4 0.8 0
v -0.4 0.9 0.1
v -0.3 0.9 0.1
v -0.4 0.9 0
v -0.3 0.9 0
v -0.3 1 0.1
v -0.2 1 0.1
v -0.3 1 0
v -0.2 1 0
v -0.2 1.1 0.1
v -0.1 1.1 0.1
v 1.4 1.1 0.1
v 1.5 1.1 0.1
v -0.2 1.1 0
v -0.1 1.1 0
v 1.4 1.1 0
v 1.5 1.1 0
v -0.1 1.2 0.1
v 0.1 1.2 0.1
v 1.3 1.2 0.1
v 1.4 1.2 0.1
v -0.1 1.2 0
v 0.1 1.2 0
v 1.3 1.2 0
v 1.4 1.2 0
v 0.1 1.3 0.1
v 0.3 1.3 0.1
v 1.2 1.3 0.1
v 1.3 1.3 0.1
v 0.1 1.3 0
v 0.3 1.3 0
v 1.2 1.3 0
v 1.3 1.3 0
v 0.3 1.4 0.1
v 1.2 1.4 0.1
v 0.3 1.4 0
v 1.2 1.4 0
v -1.6 1.7 0.1
v -1.5 1.7 0.1
v -1.6 1.7 0
v -1.5 1.7 0
v -1.5 1.8 0.1
v -1.4 1.8 0.1
v -0.8 1.8 0.1
v -0.7 1.8 0.1
v -1.5 1.8 0
v -1.4 1.8 0
v -0.8 1.8 0
v -0.7 1.8 0
v -1.4 1.9 0.1
v -1.3 1.9 0.1
v -0.9 1.9 0.1
v -0.8 1.9 0.1
v -1.4 1.9 0
v -1.3 1.9 0
v -0.9 1.9 0
v -0.8 1.9 0
v -1.3 2 0.1
v -0.9 2 0.1
v -1.3 2 0
v -0.9 2 0

# faces
f 3/3/1 2/3/1 1/3/1
f 4/3/1 2/3/1 3/3/1
f 7/3/1 6/3/1 5/3/1
f 8/3/1 6/3/1 7/3/1
f 11/3/1 10/3/1 9/3/1
f 12/3/1 10/3/1 11/3/1
f 15/3/1 14/3/1 13/3/1
f 16/3/1 14/3/1 15/3/1
f 19/3/1 18/3/1 17/3/1
f 20/3/1 18/3/1 19/3/1
f 23/3/1 22/3/1 21/3/1
f 24/3/1 22/3/1 23/3/1
f 27/3/1 26/3/1 25/3/1
f 28/3/1 26/3/1 27/3/1
f 31/3/1 30/3/1 29/3/1
f 32/3/1 30/3/1 31/3/1
f 35/3/1 34/3/1 33/3/1
f 36/3/1 34/3/1 35/3/1
f 39/3/1 38/3/1 37/3/1
f 40/3/1 38/3/1 39/3/1
f 43/3/1 42/3/1 41/3/1
f 44/3/1 42/3/1 43/3/1
f 47/3/1 46/3/1 45/3/1
f 48/3/1 46/3/1 47/3/1
f 51/3/1 50/3/1 49/3/1
f 52/3/1 50/3/1 51/3/1
f 55/3/1 54/3/1 53/3/1
f 56/3/1 54/3/1 55/3/1
f 59/3/1 58/3/1 57/3/1
f 60/3/1 58/3/1 59/3/1
f 63/3/1 62/3/1 61/3/1
f 64/3/1 62/3/1 63/3/1
f 67/3/1 66/3/1 65/3/1
f 68/3/1 66/3/1 67/3/1
f 71/3/1 70/3/1 69/3/1
f 72/3/1 70/3/1 71/3/1
f 75/3/1 74/3/1 73/3/1
f 76/3/1 74/3/1 75/3/1
f 79/3/1 78/3/1 77/3/1
f 80/3/1 78/3/1 79/3/1
f 81/3/2 82/3/2 83/3/2
f 83/3/2 82/3/2 84/3/2
f 85/3/2 86/3/2 87/3/2
f 87/3/2 86/3/2 88/3/2
f 89/3/2 90/3/2 91/3/2
f 91/3/2 90/3/2 92/3/2
f 93/3/2 94/3/2 95/3/2
f 95/3/2 94/3/2 96/3/2
f 97/3/2 98/3/2 99/3/2
f 99/3/2 98/3/2 100/3/2
f 101/3/2 102/3/2 103/3/2
f 103/3/2 102/3/2 104/3/2
f 105/3/2 106/3/2 107/3/2
f 107/3/2 106/3/2 108/3/2
f 109/3/2 110/3/2 111/3/2
f 111/3/2 110/3/2 112/3/2
f 113/3/2 114/3/2 115/3/2
f 115/3/2 114/3/2 116/3/2
f 117/3/2 118/3/2 119/3/2
f 119/3/2 118/3/2 120/3/2
f 121/3/2 122/3/2 123/3/2
f 123/3/2 122/3/2 124/3/2
f 125/3/2 126/3/2 127/3/2
f 127/3/2 126/3/2 128/3/2
f 129/3/2 130/3/2 131/3/2
f 131/3/2 130/3/2 132/3/2
f 133/3/2 134/3/2 135/3/2
f 135/3/2 134/3/2 136/3/2
f 137/3/2 138/3/2 139/3/2
f 139/3/2 138/3/2 140/3/2
f 141/3/2 142/3/2 143/3/2
f 143/3/2 142/3/2 144/3/2
f 148/3/3 146/3/3 145/3/3
f 149/3/3 146/3/3 148/3/3
f 150/3/3 146/3/3 149/3/3
f 151/3/3 146/3/3 150/3/3
f 154/3/3 148/3/3 147/3/3
f 154/3/3 149/3/3 148/3/3
f 155/1/3 150/1/3 149/1/3
f 155/3/3 149/3/3 154/3/3
f 156/3/3 152/3/3 151/3/3
f 156/1/3 150/1/3 155/1/3
f 156/3/3 151/3/3 150/3/3
f 157/3/3 152/3/3 156/3/3
f 158/3/3 152/3/3 157/3/3
f 161/3/3 154/3/3 153/3/3
f 162/3/3 154/3/3 161/3/3
f 163/1/3 155/1/3 154/1/3
f 163/3/3 154/3/3 162/3/3
f 163/1/3 156/1/3 155/1/3
f 163/1/3 157/1/3 156/1/3
f 164/1/3 157/1/3 163/1/3
f 165/1/3 157/1/3 164/1/3
f 166/3/3 159/3/3 158/3/3
f 166/1/3 157/1/3 165/1/3
f 166/3/3 158/3/3 157/3/3
f 167/3/3 159/3/3 166/3/3
f 168/3/3 159/3/3 167/3/3
f 170/3/3 162/3/3 161/3/3
f 170/3/3 161/3/3 160/3/3
f 171/1/3 164/1/3 163/1/3
f 171/3/3 162/3/3 170/3/3
f 171/1/3 163/1/3 162/1/3
f 172/2/3 165/2/3 164/2/3
f 172/1/3 164/1/3 171/1/3
f 173/1/3 167/1/3 166/1/3
f 173/2/3 165/2/3 172/2/3
f 173/1/3 166/1/3 165/1/3
f 174/1/3 167/1/3 173/1/3
f 175/3/3 169/3/3 168/3/3
f 175/1/3 167/1/3 174/1/3
f 175/3/3 168/3/3 167/3/3
f 176/3/3 169/3/3 175/3/3
f 177/1/3 171/1/3 170/1/3
f 177/1/3 173/1/3 172/1/3
f 177/3/3 170/3/3 160/3/3
f 177/1/3 172/1/3 171/1/3
f 178/1/3 173/1/3 177/1/3
f 179/2/3 174/2/3 173/2/3
f 179/1/3 173/1/3 178/1/3
f 180/1/3 176/1/3 175/1/3
f 180/2/3 174/2/3 179/2/3
f 180/1/3 175/1/3 174/1/3
f 181/3/3 178/3/3 177/3/3
f 181/3/3 177/3/3 160/3/3
f 182/3/3 178/3/3 181/3/3
f 183/1/3 179/1/3 178/1/3
f 183/3/3 178/3/3 182/3/3
f 183/1/3 180/1/3 179/1/3
f 184/1/3 180/1/3 183/1/3
f 185/1/3 176/1/3 180/1/3
f 185/1/3 180/1/3 184/1/3
f 186/3/3 169/3/3 176/3/3
f 186/1/3 176/1/3 185/1/3
f 189/3/3 184/3/3 183/3/3
f 189/3/3 183/3/3 182/3/3
f 190/3/3 184/3/3 189/3/3
f 191/1/3 185/1/3 184/1/3
f 191/3/3 184/3/3 190/3/3
f 192/1/3 185/1/3 191/1/3
f 193/1/3 185/1/3 192/1/3
f 194/3/3 186/3/3 185/3/3
f 194/1/3 185/1/3 193/1/3
f 195/3/3 169/3/3 186/3/3
f 195/3/3 186/3/3 194/3/3
f 196/3/3 169/3/3 195/3/3
f 197/3/3 188/3/3 187/3/3
f 198/3/3 188/3/3 197/3/3
f 199/3/3 188/3/3 198/3/3
f 201/3/3 191/3/3 190/3/3
f 201/3/3 192/3/3 191/3/3
f 202/3/3 192/3/3 201/3/3
f 203/1/3 193/1/3 192/1/3
f 203/3/3 192/3/3 202/3/3
f 204/3/3 195/3/3 194/3/3
f 204/1/3 193/1/3 203/1/3
f 204/3/3 194/3/3 193/3/3
f 205/3/3 195/3/3 204/3/3
f 206/3/3 195/3/3 205/3/3
f 207/3/3 200/3/3 199/3/3
f 207/3/3 199/3/3 198/3/3
f 207/1/3 198/1/3 197/1/3
f 208/3/3 200/3/3 207/3/3
f 209/3/3 200/3/3 208/3/3
f 211/3/3 203/3/3 202/3/3
f 211/3/3 205/3/3 204/3/3
f 211/3/3 204/3/3 203/3/3
f 212/3/3 205/3/3 211/3/3
f 213/1/3 208/1/3 207/1/3
f 213/3/3 197/3/3 187/3/3
f 213/1/3 207/1/3 197/1/3
f 214/1/3 208/1/3 213/1/3
f 215/3/3 210/3/3 209/3/3
f 215/1/3 208/1/3 214/1/3
f 215/3/3 209/3/3 208/3/3
f 216/3/3 210/3/3 215/3/3
f 217/3/3 210/3/3 216/3/3
f 219/3/3 214/3/3 213/3/3
f 219/3/3 213/3/3 187/3/3
f 220/3/3 214/3/3 219/3/3
f 221/3/3 218/3/3 217/3/3
f 221/3/3 217/3/3 216/3/3
f 221/1/3 215/1/3 214/1/3
f 221/1/3 216/1/3 215/1/3
f 222/3/3 218/3/3 221/3/3
f 223/3/3 218/3/3 222/3/3
f 225/3/3 224/3/3 223/3/3
f 225/3/3 223/3/3 222/3/3
f 225/1/3 222/1/3 221/1/3
f 226/3/3 224/3/3 225/3/3
f 227/3/3 224/3/3 226/3/3
f 229/3/3 214/3/3 220/3/3
f 229/1/3 221/1/3 214/1/3
f 229/1/3 225/1/3 221/1/3
f 229/1/3 226/1/3 225/1/3
f 230/1/3 226/1/3 229/1/3
f 231/3/3 228/3/3 227/3/3
f 231/1/3 226/1/3 230/1/3
f 231/3/3 227/3/3 226/3/3
f 232/3/3 228/3/3 231/3/3
f 233/3/3 228/3/3 232/3/3
f 235/3/3 230/3/3 229/3/3
f 235/3/3 229/3/3 220/3/3
f 236/3/3 230/3/3 235/3/3
f 237/3/3 234/3/3 233/3/3
f 237/3/3 233/3/3 232/3/3
f 237/1/3 231/1/3 230/1/3
f 237/1/3 232/1/3 231/1/3
f 238/3/3 234/3/3 237/3/3
f 239/3/3 234/3/3 238/3/3
f 242/3/3 230/3/3 236/3/3
f 243/3/3 239/3/3 238/3/3
f 243/3/3 240/3/3 239/3/3
f 243/1/3 238/1/3 237/1/3
f 244/3/3 240/3/3 243/3/3
f 245/3/3 240/3/3 244/3/3
f 247/3/3 242/3/3 241/3/3
f 247/3/3 230/3/3 242/3/3
f 248/1/3 237/1/3 230/1/3
f 248/3/3 230/3/3 247/3/3
f 248/1/3 243/1/3 237/1/3
f 248/1/3 244/1/3 243/1/3
f 249/3/3 246/3/3 245/3/3
f 249/1/3 244/1/3 248/1/3
f 249/3/3 245/3/3 244/3/3
f 250/3/3 246/3/3 249/3/3
f 251/3/3 246/3/3 250/3/3
f 254/3/3 247/3/3 241/3/3
f 255/1/3 248/1/3 247/1/3
f 255/1/3 249/1/3 248/1/3
f 255/1/3 250/1/3 249/1/3
f 256/1/3 250/1/3 255/1/3
f 257/3/3 252/3/3 251/3/3
f 257/1/3 250/1/3 256/1/3
f 257/3/3 251/3/3 250/3/3
f 258/3/3 252/3/3 257/3/3
f 259/3/3 254/3/3 253/3/3
f 259/3/3 247/3/3 254/3/3
f 260/1/3 255/1/3 247/1/3
f 260/3/3 247/3/3 259/3/3
f 261/2/3 256/2/3 255/2/3
f 261/1/3 255/1/3 260/1/3
f 262/1/3 258/1/3 257/1/3
f 262/2/3 256/2/3 261/2/3
f 262/1/3 257/1/3 256/1/3
f 263/1/3 258/1/3 262/1/3
f 264/3/3 252/3/3 258/3/3
f 266/1/3 258/1/3 263/1/3
f 266/3/3 265/3/3 264/3/3
f 266/3/3 264/3/3 258/3/3
f 267/3/3 265/3/3 266/3/3
f 268/1/3 260/1/3 259/1/3
f 268/1/3 261/1/3 260/1/3
f 268/3/3 259/3/3 253/3/3
f 268/1/3 262/1/3 261/1/3
f 269/1/3 262/1/3 268/1/3
f 270/2/3 263/2/3 262/2/3
f 270/1/3 262/1/3 269/1/3
f 271/1/3 267/1/3 266/1/3
f 271/2/3 263/2/3 270/2/3
f 271/1/3 266/1/3 263/1/3
f 272/3/3 269/3/3 268/3/3
f 272/3/3 268/3/3 253/3/3
f 273/3/3 269/3/3 272/3/3
f 274/1/3 270/1/3 269/1/3
f 274/3/3 269/3/3 273/3/3
f 274/1/3 271/1/3 270/1/3
f 275/1/3 271/1/3 274/1/3
f 276/1/3 271/1/3 275/1/3
f 277/1/3 271/1/3 276/1/3
f 278/3/3 274/3/3 273/3/3
f 278/3/3 275/3/3 274/3/3
f 279/3/3 275/3/3 278/3/3
f 280/1/3 267/1/3 271/1/3
f 280/1/3 271/1/3 277/1/3
f 281/3/3 265/3/3 267/3/3
f 281/1/3 267/1/3 280/1/3
f 282/3/3 275/3/3 279/3/3
f 282/1/3 276/1/3 275/1/3
f 283/1/3 276/1/3 282/1/3
f 284/2/3 277/2/3 276/2/3
f 284/1/3 276/1/3 283/1/3
f 285/1/3 280/1/3 277/1/3
f 285/2/3 277/2/3 284/2/3
f 286/1/3 280/1/3 285/1/3
f 287/3/3 281/3/3 280/3/3
f 287/1/3 280/1/3 286/1/3
f 288/3/3 265/3/3 281/3/3
f 288/3/3 281/3/3 287/3/3
f 289/3/3 265/3/3 288/3/3
f 290/3/3 283/3/3 282/3/3
f 290/3/3 282/3/3 279/3/3
f 291/3/3 283/3/3 290/3/3
f 292/1/3 284/1/3 283/1/3
f 292/3/3 283/3/3 291/3/3
f 292/1/3 286/1/3 285/1/3
f 292/1/3 285/1/3 284/1/3
f 293/1/3 286/1/3 292/1/3
f 294/1/3 286/1/3 293/1/3
f 295/3/3 287/3/3 286/3/3
f 295/1/3 286/1/3 294/1/3
f 295/3/3 288/3/3 287/3/3
f 296/3/3 288/3/3 295/3/3
f 297/3/3 288/3/3 296/3/3
f 298/3/3 293/3/3 292/3/3
f 298/3/3 292/3/3 291/3/3
f 299/3/3 293/3/3 298/3/3
f 300/1/3 294/1/3 293/1/3
f 300/3/3 293/3/3 299/3/3
f 301/3/3 296/3/3 295/3/3
f 301/1/3 294/1/3 300/1/3
f 301/3/3 295/3/3 294/3/3
f 302/3/3 296/3/3 301/3/3
f 303/3/3 296/3/3 302/3/3
f 304/3/3 300/3/3 299/3/3
f 304/3/3 302/3/3 301/3/3
f 304/3/3 301/3/3 300/3/3
f 305/3/3 302/3/3 304/3/3
f 306/3/4 307/3/4 309/3/4
f 309/3/4 307/3/4 310/3/4
f 310/3/4 307/3/4 311/3/4
f 311/3/4 307/3/4 312/3/4
f 308/3/4 309/3/4 315/3/4
f 309/3/4 310/3/4 315/3/4
f 310/1/4 311/1/4 316/1/4
f 315/3/4 310/3/4 316/3/4
f 312/3/4 313/3/4 317/3/4
f 316/1/4 311/1/4 317/1/4
f 311/3/4 312/3/4 317/3/4
f 317/3/4 313/3/4 318/3/4
f 318/3/4 313/3/4 319/3/4
f 314/3/4 315/3/4 322/3/4
f 322/3/4 315/3/4 323/3/4
f 315/1/4 316/1/4 324/1/4
f 323/3/4 315/3/4 324/3/4
f 316/1/4 317/1/4 324/1/4
f 317/1/4 318/1/4 324/1/4
f 324/1/4 318/1/4 325/1/4
f 325/1/4 318/1/4 326/1/4
f 319/3/4 320/3/4 327/3/4
f 326/1/4 318/1/4 327/1/4
f 318/3/4 319/3/4 327/3/4
f 327/3/4 320/3/4 328/3/4
f 328/3/4 320/3/4 329/3/4
f 322/3/4 323/3/4 331/3/4
f 321/3/4 322/3/4 331/3/4
f 324/1/4 325/1/4 332/1/4
f 331/3/4 323/3/4 332/3/4
f 323/1/4 324/1/4 332/1/4
f 325/2/4 326/2/4 333/2/4
f 332/1/4 325/1/4 333/1/4
f 327/1/4 328/1/4 334/1/4
f 333/2/4 326/2/4 334/2/4
f 326/1/4 327/1/4 334/1/4
f 334/1/4 328/1/4 335/1/4
f 329/3/4 330/3/4 336/3/4
f 335/1/4 328/1/4 336/1/4
f 328/3/4 329/3/4 336/3/4
f 336/3/4 330/3/4 337/3/4
f 331/1/4 332/1/4 338/1/4
f 333/1/4 334/1/4 338/1/4
f 321/3/4 331/3/4 338/3/4
f 332/1/4 333/1/4 338/1/4
f 338/1/4 334/1/4 339/1/4
f 334/2/4 335/2/4 340/2/4
f 339/1/4 334/1/4 340/1/4
f 336/1/4 337/1/4 341/1/4
f 340/2/4 335/2/4 341/2/4
f 335/1/4 336/1/4 341/1/4
f 338/3/4 339/3/4 342/3/4
f 321/3/4 338/3/4 342/3/4
f 342/3/4 339/3/4 343/3/4
f 339/1/4 340/1/4 344/1/4
f 343/3/4 339/3/4 344/3/4
f 340/1/4 341/1/4 344/1/4
f 344/1/4 341/1/4 345/1/4
f 341/1/4 337/1/4 346/1/4
f 345/1/4 341/1/4 346/1/4
f 337/3/4 330/3/4 347/3/4
f 346/1/4 337/1/4 347/1/4
f 344/3/4 345/3/4 350/3/4
f 343/3/4 344/3/4 350/3/4
f 350/3/4 345/3/4 351/3/4
f 345/1/4 346/1/4 352/1/4
f 351/3/4 345/3/4 352/3/4
f 352/1/4 346/1/4 353/1/4
f 353/1/4 346/1/4 354/1/4
f 346/3/4 347/3/4 355/3/4
f 354/1/4 346/1/4 355/1/4
f 347/3/4 330/3/4 356/3/4
f 355/3/4 347/3/4 356/3/4
f 356/3/4 330/3/4 357/3/4
f 348/3/4 349/3/4 358/3/4
f 358/3/4 349/3/4 359/3/4
f 359/3/4 349/3/4 360/3/4
f 351/3/4 352/3/4 362/3/4
f 352/3/4 353/3/4 362/3/4
f 362/3/4 353/3/4 363/3/4
f 353/1/4 354/1/4 364/1/4
f 363/3/4 353/3/4 364/3/4
f 355/3/4 356/3/4 365/3/4
f 364/1/4 354/1/4 365/1/4
f 354/3/4 355/3/4 365/3/4
f 365/3/4 356/3/4 366/3/4
f 366/3/4 356/3/4 367/3/4
f 360/3/4 361/3/4 368/3/4
f 359/3/4 360/3/4 368/3/4
f 358/1/4 359/1/4 368/1/4
f 368/3/4 361/3/4 369/3/4
f 369/3/4 361/3/4 370/3/4
f 363/3/4 364/3/4 372/3/4
f 365/3/4 366/3/4 372/3/4
f 364/3/4 365/3/4 372/3/4
f 372/3/4 366/3/4 373/3/4
f 368/1/4 369/1/4 374/1/4
f 348/3/4 358/3/4 374/3/4
f 358/1/4 368/1/4 374/1/4
f 374/1/4 369/1/4 375/1/4
f 370/3/4 371/3/4 376/3/4
f 375/1/4 369/1/4 376/1/4
f 369/3/4 370/3/4 376/3/4
f 376/3/4 371/3/4 377/3/4
f 377/3/4 371/3/4 378/3/4
f 374/3/4 375/3/4 380/3/4
f 348/3/4 374/3/4 380/3/4
f 380/3/4 375/3/4 381/3/4
f 378/3/4 379/3/4 382/3/4
f 377/3/4 378/3/4 382/3/4
f 375/1/4 376/1/4 382/1/4
f 376/1/4 377/1/4 382/1/4
f 382/3/4 379/3/4 383/3/4
f 383/3/4 379/3/4 384/3/4
f 384/3/4 385/3/4 386/3/4
f 383/3/4 384/3/4 386/3/4
f 382/1/4 383/1/4 386/1/4
f 386/3/4 385/3/4 387/3/4
f 387/3/4 385/3/4 388/3/4
f 381/3/4 375/3/4 390/3/4
f 375/1/4 382/1/4 390/1/4
f 382/1/4 386/1/4 390/1/4
f 386/1/4 387/1/4 390/1/4
f 390/1/4 387/1/4 391/1/4
f 388/3/4 389/3/4 392/3/4
f 391/1/4 387/1/4 392/1/4
f 387/3/4 388/3/4 392/3/4
f 392/3/4 389/3/4 393/3/4
f 393/3/4 389/3/4 394/3/4
f 390/3/4 391/3/4 396/3/4
f 381/3/4 390/3/4 396/3/4
f 396/3/4 391/3/4 397/3/4
f 394/3/4 395/3/4 398/3/4
f 393/3/4 394/3/4 398/3/4
f 391/1/4 392/1/4 398/1/4
f 392/1/4 393/1/4 398/1/4
f 398/3/4 395/3/4 399/3/4
f 399/3/4 395/3/4 400/3/4
f 397/3/4 391/3/4 403/3/4
f 399/3/4 400/3/4 404/3/4
f 400/3/4 401/3/4 404/3/4
f 398/1/4 399/1/4 404/1/4
f 404/3/4 401/3/4 405/3/4
f 405/3/4 401/3/4 406/3/4
f 402/3/4 403/3/4 408/3/4
f 403/3/4 391/3/4 408/3/4
f 391/1/4 398/1/4 409/1/4
f 408/3/4 391/3/4 409/3/4
f 398/1/4 404/1/4 409/1/4
f 404/1/4 405/1/4 409/1/4
f 406/3/4 407/3/4 410/3/4
f 409/1/4 405/1/4 410/1/4
f 405/3/4 406/3/4 410/3/4
f 410/3/4 407/3/4 411/3/4
f 411/3/4 407/3/4 412/3/4
f 402/3/4 408/3/4 415/3/4
f 408/1/4 409/1/4 416/1/4
f 409/1/4 410/1/4 416/1/4
f 410/1/4 411/1/4 416/1/4
f 416/1/4 411/1/4 417/1/4
f 412/3/4 413/3/4 418/3/4
f 417/1/4 411/1/4 418/1/4
f 411/3/4 412/3/4 418/3/4
f 418/3/4 413/3/4 419/3/4
f 414/3/4 415/3/4 420/3/4
f 415/3/4 408/3/4 420/3/4
f 408/1/4 416/1/4 421/1/4
f 420/3/4 408/3/4 421/3/4
f 416/2/4 417/2/4 422/2/4
f 421/1/4 416/1/4 422/1/4
f 418/1/4 419/1/4 423/1/4
f 422/2/4 417/2/4 423/2/4
f 417/1/4 418/1/4 423/1/4
f 423/1/4 419/1/4 424/1/4
f 419/3/4 413/3/4 425/3/4
f 424/1/4 419/1/4 427/1/4
f 425/3/4 426/3/4 427/3/4
f 419/3/4 425/3/4 427/3/4
f 427/3/4 426/3/4 428/3/4
f 420/1/4 421/1/4 429/1/4
f 421/1/4 422/1/4 429/1/4
f 414/3/4 420/3/4 429/3/4
f 422/1/4 423/1/4 429/1/4
f 429/1/4 423/1/4 430/1/4
f 423/2/4 424/2/4 431/2/4
f 430/1/4 423/1/4 431/1/4
f 427/1/4 428/1/4 432/1/4
f 431/2/4 424/2/4 432/2/4
f 424/1/4 427/1/4 432/1/4
f 429/3/4 430/3/4 433/3/4
f 414/3/4 429/3/4 433/3/4
f 433/3/4 430/3/4 434/3/4
f 430/1/4 431/1/4 435/1/4
f 434/3/4 430/3/4 435/3/4
f 431/1/4 432/1/4 435/1/4
f 435/1/4 432/1/4 436/1/4
f 436/1/4 432/1/4 437/1/4
f 437/1/4 432/1/4 438/1/4
f 434/3/4 435/3/4 439/3/4
f 435/3/4 436/3/4 439/3/4
f 439/3/4 436/3/4 440/3/4
f 432/1/4 428/1/4 441/1/4
f 438/1/4 432/1/4 441/1/4
f 428/3/4 426/3/4 442/3/4
f 441/1/4 428/1/4 442/1/4
f 440/3/4 436/3/4 443/3/4
f 436/1/4 437/1/4 443/1/4
f 443/1/4 437/1/4 444/1/4
f 437/2/4 438/2/4 445/2/4
f 444/1/4 437/1/4 445/1/4
f 438/1/4 441/1/4 446/1/4
f 445/2/4 438/2/4 446/2/4
f 446/1/4 441/1/4 447/1/4
f 441/3/4 442/3/4 448/3/4
f 447/1/4 441/1/4 448/1/4
f 442/3/4 426/3/4 449/3/4
f 448/3/4 442/3/4 449/3/4
f 449/3/4 426/3/4 450/3/4
f 443/3/4 444/3/4 451/3/4
f 440/3/4 443/3/4 451/3/4
f 451/3/4 444/3/4 452/3/4
f 444/1/4 445/1/4 453/1/4
f 452/3/4 444/3/4 453/3/4
f 446/1/4 447/1/4 453/1/4
f 445/1/4 446/1/4 453/1/4
f 453/1/4 447/1/4 454/1/4
f 454/1/4 447/1/4 455/1/4
f 447/3/4 448/3/4 456/3/4
f 455/1/4 447/1/4 456/1/4
f 448/3/4 449/3/4 456/3/4
f 456/3/4 449/3/4 457/3/4
f 457/3/4 449/3/4 458/3/4
f 453/3/4 454/3/4 459/3/4
f 452/3/4 453/3/4 459/3/4
f 459/3/4 454/3/4 460/3/4
f 454/1/4 455/1/4 461/1/4
f 460/3/4 454/3/4 461/3/4
f 456/3/4 457/3/4 462/3/4
f 461/1/4 455/1/4 462/1/4
f 455/3/4 456/3/4 462/3/4
f 462/3/4 457/3/4 463/3/4
f 463/3/4 457/3/4 464/3/4
f 460/3/4 461/3/4 465/3/4
f 462/3/4 463/3/4 465/3/4
f 461/3/4 462/3/4 465/3/4
f 465/3/4 463/3/4 466/3/4
f 471/3/5 468/3/5 467/3/5
f 472/3/5 468/3/5 471/3/5
f 473/3/5 470/3/5 469/3/5
f 474/3/5 470/3/5 473/3/5
f 481/3/5 476/3/5 475/3/5
f 482/3/5 476/3/5 481/3/5
f 483/3/5 478/3/5 477/3/5
f 484/3/5 478/3/5 483/3/5
f 485/3/5 480/3/5 479/3/5
f 486/3/5 480/3/5 485/3/5
f 491/3/5 488/3/5 487/3/5
f 492/3/5 488/3/5 491/3/5
f 493/3/5 490/3/5 489/3/5
f 494/3/5 490/3/5 493/3/5
f 497/3/5 496/3/5 495/3/5
f 498/3/5 496/3/5 497/3/5
f 501/3/5 500/3/5 499/3/5
f 502/3/5 500/3/5 501/3/5
f 505/3/5 504/3/5 503/3/5
f 506/3/5 504/3/5 505/3/5
f 509/3/5 508/3/5 507/3/5
f 510/3/5 508/3/5 509/3/5
f 513/3/5 512/3/5 511/3/5
f 514/3/5 512/3/5 513/3/5
f 519/3/5 516/3/5 515/3/5
f 520/3/5 516/3/5 519/3/5
f 521/3/5 518/3/5 517/3/5
f 522/3/5 518/3/5 521/3/5
f 525/3/5 524/3/5 523/3/5
f 526/3/5 524/3/5 525/3/5
f 529/3/5 528/3/5 527/3/5
f 530/3/5 528/3/5 529/3/5
f 531/3/6 532/3/6 533/3/6
f 533/3/6 532/3/6 534/3/6
f 535/3/6 536/3/6 537/3/6
f 537/3/6 536/3/6 538/3/6
f 539/3/6 540/3/6 541/3/6
f 541/3/6 540/3/6 542/3/6
f 543/3/6 544/3/6 545/3/6
f 545/3/6 544/3/6 546/3/6
f 547/3/6 548/3/6 549/3/6
f 549/3/6 548/3/6 550/3/6
f 551/3/6 552/3/6 553/3/6
f 553/3/6 552/3/6 554/3/6
f 555/3/6 556/3/6 557/3/6
f 557/3/6 556/3/6 558/3/6
f 559/3/6 560/3/6 563/3/6
f 563/3/6 560/3/6 564/3/6
f 561/3/6 562/3/6 565/3/6
f 565/3/6 562/3/6 566/3/6
f 567/3/6 568/3/6 571/3/6
f 571/3/6 568/3/6 572/3/6
f 569/3/6 570/3/6 573/3/6
f 573/3/6 570/3/6 574/3/6
f 575/3/6 576/3/6 579/3/6
f 579/3/6 576/3/6 580/3/6
f 577/3/6 578/3/6 581/3/6
f 581/3/6 578/3/6 582/3/6
f 583/3/6 584/3/6 585/3/6
f 585/3/6 584/3/6 586/3/6
f 587/3/6 588/3/6 589/3/6
f 589/3/6 588/3/6 590/3/6
f 591/3/6 592/3/6 595/3/6
f 595/3/6 592/3/6 596/3/6
f 593/3/6 594/3/6 597/3/6
f 597/3/6 594/3/6 598/3/6
f 599/3/6 600/3/6 603/3/6
f 603/3/6 600/3/6 604/3/6
f 601/3/6 602/3/6 605/3/6
f 605/3/6 602/3/6 606/3/6
f 607/3/6 608/3/6 609/3/6
f 609/3/6 608/3/6 610/3/6
