# MagicaVoxel @ Ephtracy

# group
o 

# material
mtllib field_mori.mtl
usemtl palette

# normals
vn -1 0 0
vn 1 0 0
vn 0 0 1
vn 0 0 -1
vn 0 -1 0
vn 0 1 0

# texcoords
vt 0.310547 0.5
vt 0.634766 0.5
vt 0.990234 0.5

# verts
v -12.8 0 10
v -12.8 0 -10
v -12.8 0.5 10
v -12.8 0.5 -10
v -12.8 0.9 10
v -12.8 0.9 -10
v -12.8 1.2 10
v -12.8 1.2 -10
v 12.7 0 10
v 12.7 0 -1.1
v 12.7 0.2 10
v 12.7 0.2 -1.1
v 12.8 0 -1.1
v 12.8 0 -10
v 12.8 0.2 10
v 12.8 0.2 -1.1
v 12.8 0.5 10
v 12.8 0.5 -10
v 12.8 0.9 10
v 12.8 0.9 -10
v 12.8 1.2 10
v 12.8 1.2 -10
v -12.8 0 10
v -12.8 0.5 10
v -12.8 0.9 10
v -12.8 1.2 10
v 12.7 0 10
v 12.7 0.2 10
v 12.8 0.2 10
v 12.8 0.5 10
v 12.8 0.9 10
v 12.8 1.2 10
v 12.7 0 -1.1
v 12.7 0.2 -1.1
v 12.8 0 -1.1
v 12.8 0.2 -1.1
v -12.8 0 -10
v -12.8 0.5 -10
v -12.8 0.9 -10
v -12.8 1.2 -10
v 12.8 0 -10
v 12.8 0.5 -10
v 12.8 0.9 -10
v 12.8 1.2 -10
v -12.8 0 10
v 12.7 0 10
v 12.7 0 -1.1
v 12.8 0 -1.1
v -12.8 0 -10
v 12.8 0 -10
v 12.7 0.2 10
v 12.8 0.2 10
v 12.7 0.2 -1.1
v 12.8 0.2 -1.1
v -12.8 1.2 10
v 12.8 1.2 10
v -12.8 1.2 -10
v 12.8 1.2 -10

# faces
f 3/3/1 2/3/1 1/3/1
f 4/3/1 2/3/1 3/3/1
f 5/1/1 4/1/1 3/1/1
f 6/1/1 4/1/1 5/1/1
f 7/2/1 6/2/1 5/2/1
f 8/2/1 6/2/1 7/2/1
f 9/3/2 10/3/2 11/3/2
f 11/3/2 10/3/2 12/3/2
f 13/3/2 14/3/2 16/3/2
f 15/3/2 16/3/2 17/3/2
f 16/3/2 14/3/2 18/3/2
f 17/3/2 16/3/2 18/3/2
f 17/1/2 18/1/2 19/1/2
f 19/1/2 18/1/2 20/1/2
f 19/2/2 20/2/2 21/2/2
f 21/2/2 20/2/2 22/2/2
f 27/3/3 24/3/3 23/3/3
f 28/3/3 24/3/3 27/3/3
f 29/3/3 24/3/3 28/3/3
f 30/1/3 25/1/3 24/1/3
f 30/3/3 24/3/3 29/3/3
f 31/2/3 26/2/3 25/2/3
f 31/1/3 25/1/3 30/1/3
f 32/2/3 26/2/3 31/2/3
f 35/3/3 34/3/3 33/3/3
f 36/3/3 34/3/3 35/3/3
f 37/3/4 38/3/4 41/3/4
f 38/1/4 39/1/4 42/1/4
f 41/3/4 38/3/4 42/3/4
f 39/2/4 40/2/4 43/2/4
f 42/1/4 39/1/4 43/1/4
f 43/2/4 40/2/4 44/2/4
f 47/3/5 46/3/5 45/3/5
f 49/3/5 47/3/5 45/3/5
f 49/3/5 48/3/5 47/3/5
f 50/3/5 48/3/5 49/3/5
f 53/3/5 52/3/5 51/3/5
f 54/3/5 52/3/5 53/3/5
f 55/2/6 56/2/6 57/2/6
f 57/2/6 56/2/6 58/2/6
