# MagicaVoxel @ Ephtracy

# group
o 

# material
mtllib goburin_0.mtl
usemtl palette

# normals
vn -1 0 0
vn 1 0 0
vn 0 0 1
vn 0 0 -1
vn 0 -1 0
vn 0 1 0

# texcoords
vt 0.0332031 0.5
vt 0.201172 0.5
vt 0.373047 0.5
vt 0.576172 0.5
vt 0.994141 0.5

# verts
v -1.5 3.3 0.7
v -1.5 3.3 0.3
v -1.5 3.5 0.7
v -1.5 3.5 0.3
v -1.4 3.5 0.7
v -1.4 3.5 0.3
v -1.4 3.6 0.7
v -1.4 3.6 0.3
v -1.3 3.6 0.7
v -1.3 3.6 0.3
v -1.3 3.7 0.7
v -1.3 3.7 0.3
v -1.1 1.1 0.7
v -1.1 1.1 0.3
v -1.1 2.5 0.7
v -1.1 2.5 0.3
v -1 2.5 1.3
v -1 2.5 0.7
v -1 2.5 0.3
v -1 2.5 -0.3
v -1 3.3 0.7
v -1 3.3 0.3
v -1 3.7 0.7
v -1 3.7 0.3
v -1 4.1 1.3
v -1 4.1 -0.3
v -0.9 4.1 1.2
v -0.9 4.1 -0.2
v -0.9 4.2 1.2
v -0.9 4.2 -0.2
v -0.8 0.6 1
v -0.8 0.6 0.8
v -0.8 0.6 0.7
v -0.8 0.6 0.3
v -0.8 0.6 0.2
v -0.8 0.6 0
v -0.8 1.1 0.7
v -0.8 1.1 0.3
v -0.8 1.2 1
v -0.8 1.2 0.8
v -0.8 1.2 0.7
v -0.8 1.2 0.3
v -0.8 1.2 0.2
v -0.8 1.2 0
v -0.8 2.5 1
v -0.8 2.5 0.7
v -0.8 2.5 0.3
v -0.8 2.5 0
v -0.6 0 0.9
v -0.6 0 0.4
v -0.6 0.1 0.9
v -0.6 0.1 0.7
v -0.6 0.6 0.7
v -0.6 0.6 0.4
v -0.6 3.2 1.4
v -0.6 3.2 1.3
v -0.6 3.5 1.4
v -0.6 3.5 1.3
v -0.2 3.2 1.2
v -0.2 3.2 0.9
v -0.2 3.4 0.9
v -0.2 3.4 0.8
v -0.2 3.5 1.2
v -0.2 3.5 0.8
v -0.1 2.8 1.4
v -0.1 2.8 1.3
v -0.1 3.2 1.4
v -0.1 3.2 1.3
v -0.1 3.2 0.9
v -0.1 3.2 0.5
v -0.1 3.4 0.9
v -0.1 3.4 0.5
v 0 3.1 0.3
v 0 3.1 0.2
v 0 3.2 0.5
v 0 3.2 0.3
v 0 3.4 0.5
v 0 3.4 0.2
v 0.1 3.1 0.2
v 0.1 3.1 -0.1
v 0.1 3.4 0.2
v 0.1 3.4 -0.1
v 0.3 0 0.9
v 0.3 0 0.4
v 0.3 0.1 0.9
v 0.3 0.1 0.7
v 0.3 0.6 0.7
v 0.3 0.6 0.4
v 0.3 3.2 1.4
v 0.3 3.2 1.3
v 0.3 3.5 1.4
v 0.3 3.5 1.3
v 0.4 3.3 1.1
v 0.4 3.3 0.6
v 0.4 3.5 1.1
v 0.4 3.5 0.6
v 0.5 3.3 0.6
v 0.5 3.3 0.1
v 0.5 3.6 0.6
v 0.5 3.6 0.1
v -0.3 0 0.9
v -0.3 0 0.4
v -0.3 0.1 0.9
v -0.3 0.1 0.7
v -0.3 0.6 0.7
v -0.3 0.6 0.4
v -0.3 3.2 1.4
v -0.3 3.2 1.3
v -0.3 3.2 1.2
v -0.3 3.2 0.9
v -0.3 3.4 0.9
v -0.3 3.4 0.8
v -0.3 3.5 1.4
v -0.3 3.5 1.3
v -0.3 3.5 1.2
v -0.3 3.5 0.8
v -0.2 3.2 0.9
v -0.2 3.2 0.5
v -0.2 3.4 0.9
v -0.2 3.4 0.5
v -0.1 3.1 0.3
v -0.1 3.1 0.2
v -0.1 3.2 0.5
v -0.1 3.2 0.3
v -0.1 3.4 0.5
v -0.1 3.4 0.2
v 0 3.1 0.2
v 0 3.1 -0.1
v 0 3.4 0.2
v 0 3.4 -0.1
v 0.1 2.8 1.4
v 0.1 2.8 1.3
v 0.1 3.2 1.4
v 0.1 3.2 1.3
v 0.3 3.3 1.1
v 0.3 3.3 0.6
v 0.3 3.5 1.1
v 0.3 3.5 0.6
v 0.4 3.3 0.6
v 0.4 3.3 0.1
v 0.4 3.6 0.6
v 0.4 3.6 0.1
v 0.6 0 0.9
v 0.6 0 0.4
v 0.6 0.1 0.9
v 0.6 0.1 0.7
v 0.6 0.6 0.7
v 0.6 0.6 0.4
v 0.6 3.2 1.4
v 0.6 3.2 1.3
v 0.6 3.5 1.4
v 0.6 3.5 1.3
v 0.8 0.6 1
v 0.8 0.6 0.8
v 0.8 0.6 0.7
v 0.8 0.6 0.3
v 0.8 0.6 0.2
v 0.8 0.6 0
v 0.8 1.1 0.7
v 0.8 1.1 0.3
v 0.8 1.2 1
v 0.8 1.2 0.8
v 0.8 1.2 0.7
v 0.8 1.2 0.3
v 0.8 1.2 0.2
v 0.8 1.2 0
v 0.8 2.5 1
v 0.8 2.5 0.7
v 0.8 2.5 0.3
v 0.8 2.5 0
v 0.9 4.1 1.2
v 0.9 4.1 -0.2
v 0.9 4.2 1.2
v 0.9 4.2 -0.2
v 1 2.5 1.3
v 1 2.5 0.7
v 1 2.5 0.3
v 1 2.5 -0.3
v 1 3.3 0.7
v 1 3.3 0.3
v 1 3.7 0.7
v 1 3.7 0.3
v 1 4.1 1.3
v 1 4.1 -0.3
v 1.1 1.1 0.7
v 1.1 1.1 0.3
v 1.1 2.5 0.7
v 1.1 2.5 0.3
v 1.4 3.6 0.7
v 1.4 3.6 0.3
v 1.4 3.7 0.7
v 1.4 3.7 0.3
v 1.5 3.5 0.7
v 1.5 3.5 0.3
v 1.5 3.6 0.7
v 1.5 3.6 0.3
v 1.6 3.3 0.7
v 1.6 3.3 0.3
v 1.6 3.5 0.7
v 1.6 3.5 0.3
v -0.6 3.2 1.4
v -0.6 3.5 1.4
v -0.3 3.2 1.4
v -0.3 3.5 1.4
v -0.1 2.8 1.4
v -0.1 3.2 1.4
v 0.1 2.8 1.4
v 0.1 3.2 1.4
v 0.3 3.2 1.4
v 0.3 3.5 1.4
v 0.6 3.2 1.4
v 0.6 3.5 1.4
v -1 2.5 1.3
v -1 4.1 1.3
v -0.6 3.2 1.3
v -0.6 3.5 1.3
v -0.3 3.2 1.3
v -0.3 3.5 1.3
v -0.1 2.8 1.3
v -0.1 3.2 1.3
v 0.1 2.8 1.3
v 0.1 3.2 1.3
v 0.3 3.2 1.3
v 0.3 3.5 1.3
v 0.6 3.2 1.3
v 0.6 3.5 1.3
v 1 2.5 1.3
v 1 4.1 1.3
v -0.9 4.1 1.2
v -0.9 4.2 1.2
v 0.9 4.1 1.2
v 0.9 4.2 1.2
v -0.8 0.6 1
v -0.8 1.2 1
v -0.8 2.5 1
v -0.7 0.6 1
v -0.7 1.2 1
v -0.6 0.6 1
v -0.6 1.2 1
v -0.3 0.6 1
v -0.3 1.2 1
v -0.2 0.6 1
v -0.2 1.2 1
v 0.2 0.6 1
v 0.2 1.2 1
v 0.3 0.6 1
v 0.3 1.2 1
v 0.6 0.6 1
v 0.6 1.2 1
v 0.7 0.6 1
v 0.7 1.2 1
v 0.8 0.6 1
v 0.8 1.2 1
v 0.8 2.5 1
v -0.6 0 0.9
v -0.6 0.1 0.9
v -0.3 0 0.9
v -0.3 0.1 0.9
v -0.3 3.2 0.9
v -0.3 3.4 0.9
v -0.2 3.2 0.9
v -0.2 3.4 0.9
v 0.3 0 0.9
v 0.3 0.1 0.9
v 0.6 0 0.9
v 0.6 0.1 0.9
v -0.3 3.4 0.8
v -0.3 3.5 0.8
v -0.2 3.4 0.8
v -0.2 3.5 0.8
v -1.5 3.3 0.7
v -1.5 3.5 0.7
v -1.4 3.5 0.7
v -1.4 3.6 0.7
v -1.3 3.6 0.7
v -1.3 3.7 0.7
v -1.1 1.1 0.7
v -1.1 2.5 0.7
v -1 2.5 0.7
v -1 3.3 0.7
v -1 3.7 0.7
v -0.8 1.1 0.7
v -0.8 1.2 0.7
v -0.8 2.5 0.7
v -0.6 0.1 0.7
v -0.6 0.6 0.7
v -0.3 0.1 0.7
v -0.3 0.6 0.7
v 0.3 0.1 0.7
v 0.3 0.6 0.7
v 0.6 0.1 0.7
v 0.6 0.6 0.7
v 0.8 1.1 0.7
v 0.8 1.2 0.7
v 0.8 2.5 0.7
v 1 2.5 0.7
v 1 3.3 0.7
v 1 3.7 0.7
v 1.1 1.1 0.7
v 1.1 2.5 0.7
v 1.4 3.6 0.7
v 1.4 3.7 0.7
v 1.5 3.5 0.7
v 1.5 3.6 0.7
v 1.6 3.3 0.7
v 1.6 3.5 0.7
v 0.3 3.3 0.6
v 0.3 3.5 0.6
v 0.4 3.3 0.6
v 0.4 3.5 0.6
v -0.2 3.2 0.5
v -0.2 3.4 0.5
v -0.1 3.2 0.5
v -0.1 3.4 0.5
v -0.1 3.1 0.2
v -0.1 3.4 0.2
v 0 3.1 0.2
v 0 3.4 0.2
v 0.4 3.3 0.1
v 0.4 3.6 0.1
v 0.5 3.3 0.1
v 0.5 3.6 0.1
v 0 3.1 -0.1
v 0 3.4 -0.1
v 0.1 3.1 -0.1
v 0.1 3.4 -0.1
v -0.3 3.2 1.2
v -0.3 3.5 1.2
v -0.2 3.2 1.2
v -0.2 3.5 1.2
v 0.3 3.3 1.1
v 0.3 3.5 1.1
v 0.4 3.3 1.1
v 0.4 3.5 1.1
v -0.2 3.2 0.9
v -0.2 3.4 0.9
v -0.1 3.2 0.9
v -0.1 3.4 0.9
v 0.4 3.3 0.6
v 0.4 3.6 0.6
v 0.5 3.3 0.6
v 0.5 3.6 0.6
v -0.1 3.2 0.5
v -0.1 3.4 0.5
v 0 3.2 0.5
v 0 3.4 0.5
v -0.6 0 0.4
v -0.6 0.6 0.4
v -0.3 0 0.4
v -0.3 0.6 0.4
v 0.3 0 0.4
v 0.3 0.6 0.4
v 0.6 0 0.4
v 0.6 0.6 0.4
v -1.5 3.3 0.3
v -1.5 3.5 0.3
v -1.4 3.5 0.3
v -1.4 3.6 0.3
v -1.3 3.6 0.3
v -1.3 3.7 0.3
v -1.1 1.1 0.3
v -1.1 2.5 0.3
v -1 2.5 0.3
v -1 3.3 0.3
v -1 3.7 0.3
v -0.8 1.1 0.3
v -0.8 1.2 0.3
v -0.8 2.5 0.3
v -0.1 3.1 0.3
v -0.1 3.2 0.3
v 0 3.1 0.3
v 0 3.2 0.3
v 0.8 1.1 0.3
v 0.8 1.2 0.3
v 0.8 2.5 0.3
v 1 2.5 0.3
v 1 3.3 0.3
v 1 3.7 0.3
v 1.1 1.1 0.3
v 1.1 2.5 0.3
v 1.4 3.6 0.3
v 1.4 3.7 0.3
v 1.5 3.5 0.3
v 1.5 3.6 0.3
v 1.6 3.3 0.3
v 1.6 3.5 0.3
v 0 3.1 0.2
v 0 3.4 0.2
v 0.1 3.1 0.2
v 0.1 3.4 0.2
v -0.8 0.6 0
v -0.8 1.2 0
v -0.8 2.5 0
v -0.7 0.6 0
v -0.7 1.2 0
v -0.6 0.6 0
v -0.6 1.2 0
v -0.3 0.6 0
v -0.3 1.2 0
v -0.2 0.6 0
v -0.2 1.2 0
v 0.2 0.6 0
v 0.2 1.2 0
v 0.3 0.6 0
v 0.3 1.2 0
v 0.6 0.6 0
v 0.6 1.2 0
v 0.7 0.6 0
v 0.7 1.2 0
v 0.8 0.6 0
v 0.8 1.2 0
v 0.8 2.5 0
v -0.9 4.1 -0.2
v -0.9 4.2 -0.2
v 0.9 4.1 -0.2
v 0.9 4.2 -0.2
v -1 2.5 -0.3
v -1 4.1 -0.3
v 1 2.5 -0.3
v 1 4.1 -0.3
v -0.6 0 0.9
v -0.3 0 0.9
v 0.3 0 0.9
v 0.6 0 0.9
v -0.6 0 0.4
v -0.3 0 0.4
v 0.3 0 0.4
v 0.6 0 0.4
v -0.8 0.6 1
v -0.7 0.6 1
v -0.6 0.6 1
v -0.3 0.6 1
v -0.2 0.6 1
v 0.2 0.6 1
v 0.3 0.6 1
v 0.6 0.6 1
v 0.7 0.6 1
v 0.8 0.6 1
v -0.7 0.6 0.9
v -0.6 0.6 0.9
v -0.3 0.6 0.9
v -0.2 0.6 0.9
v 0.2 0.6 0.9
v 0.3 0.6 0.9
v 0.6 0.6 0.9
v 0.7 0.6 0.9
v -0.8 0.6 0.8
v -0.7 0.6 0.8
v 0.6 0.6 0.8
v 0.8 0.6 0.8
v -0.8 0.6 0.7
v -0.7 0.6 0.7
v -0.6 0.6 0.7
v -0.3 0.6 0.7
v 0.3 0.6 0.7
v 0.6 0.6 0.7
v 0.8 0.6 0.7
v -0.6 0.6 0.4
v -0.3 0.6 0.4
v 0.3 0.6 0.4
v 0.6 0.6 0.4
v -0.8 0.6 0.3
v -0.7 0.6 0.3
v 0.6 0.6 0.3
v 0.8 0.6 0.3
v -0.8 0.6 0.2
v -0.7 0.6 0.2
v 0.6 0.6 0.2
v 0.8 0.6 0.2
v -0.7 0.6 0.1
v -0.6 0.6 0.1
v -0.3 0.6 0.1
v -0.2 0.6 0.1
v 0.2 0.6 0.1
v 0.3 0.6 0.1
v 0.6 0.6 0.1
v 0.7 0.6 0.1
v -0.8 0.6 0
v -0.7 0.6 0
v -0.6 0.6 0
v -0.3 0.6 0
v -0.2 0.6 0
v 0.2 0.6 0
v 0.3 0.6 0
v 0.6 0.6 0
v 0.7 0.6 0
v 0.8 0.6 0
v -1.1 1.1 0.7
v -0.8 1.1 0.7
v 0.8 1.1 0.7
v 1.1 1.1 0.7
v -1.1 1.1 0.3
v -0.8 1.1 0.3
v 0.8 1.1 0.3
v 1.1 1.1 0.3
v -1 2.5 1.3
v 1 2.5 1.3
v -0.8 2.5 1
v 0.8 2.5 1
v -1 2.5 0.7
v -0.8 2.5 0.7
v 0.8 2.5 0.7
v 1 2.5 0.7
v -1 2.5 0.3
v -0.8 2.5 0.3
v 0.8 2.5 0.3
v 1 2.5 0.3
v -0.8 2.5 0
v 0.8 2.5 0
v -1 2.5 -0.3
v 1 2.5 -0.3
v -0.1 2.8 1.4
v 0.1 2.8 1.4
v -0.1 2.8 1.3
v 0.1 2.8 1.3
v -0.6 3.2 1.4
v -0.3 3.2 1.4
v 0.3 3.2 1.4
v 0.6 3.2 1.4
v -0.6 3.2 1.3
v -0.3 3.2 1.3
v 0.3 3.2 1.3
v 0.6 3.2 1.3
v -1.5 3.3 0.7
v -1 3.3 0.7
v 1 3.3 0.7
v 1.6 3.3 0.7
v -1.5 3.3 0.3
v -1 3.3 0.3
v 1 3.3 0.3
v 1.6 3.3 0.3
v -0.2 3.4 0.9
v -0.1 3.4 0.9
v -0.2 3.4 0.5
v -0.1 3.4 0.5
v 0 3.4 0.5
v -0.1 3.4 0.2
v 0 3.4 0.2
v 0.1 3.4 0.2
v 0 3.4 -0.1
v 0.1 3.4 -0.1
v -0.3 3.5 1.2
v -0.2 3.5 1.2
v 0.3 3.5 1.1
v 0.4 3.5 1.1
v -0.3 3.5 0.8
v -0.2 3.5 0.8
v 0.3 3.5 0.6
v 0.4 3.5 0.6
v 0.4 3.6 0.6
v 0.5 3.6 0.6
v 0.4 3.6 0.1
v 0.5 3.6 0.1
v -0.6 0.1 0.9
v -0.3 0.1 0.9
v 0.3 0.1 0.9
v 0.6 0.1 0.9
v -0.6 0.1 0.7
v -0.3 0.1 0.7
v 0.3 0.1 0.7
v 0.6 0.1 0.7
v -1.1 2.5 0.7
v -1 2.5 0.7
v 1 2.5 0.7
v 1.1 2.5 0.7
v -1.1 2.5 0.3
v -1 2.5 0.3
v 1 2.5 0.3
v 1.1 2.5 0.3
v -0.1 3.1 0.3
v 0 3.1 0.3
v -0.1 3.1 0.2
v 0 3.1 0.2
v 0.1 3.1 0.2
v 0 3.1 -0.1
v 0.1 3.1 -0.1
v -0.1 3.2 1.4
v 0.1 3.2 1.4
v -0.1 3.2 1.3
v 0.1 3.2 1.3
v -0.3 3.2 1.2
v -0.2 3.2 1.2
v -0.3 3.2 0.9
v -0.2 3.2 0.9
v -0.1 3.2 0.9
v -0.2 3.2 0.5
v -0.1 3.2 0.5
v 0 3.2 0.5
v -0.1 3.2 0.3
v 0 3.2 0.3
v 0.3 3.3 1.1
v 0.4 3.3 1.1
v 0.3 3.3 0.6
v 0.4 3.3 0.6
v 0.5 3.3 0.6
v 0.4 3.3 0.1
v 0.5 3.3 0.1
v -0.3 3.4 0.9
v -0.2 3.4 0.9
v -0.3 3.4 0.8
v -0.2 3.4 0.8
v -0.6 3.5 1.4
v -0.3 3.5 1.4
v 0.3 3.5 1.4
v 0.6 3.5 1.4
v -0.6 3.5 1.3
v -0.3 3.5 1.3
v 0.3 3.5 1.3
v 0.6 3.5 1.3
v -1.5 3.5 0.7
v -1.4 3.5 0.7
v 1.5 3.5 0.7
v 1.6 3.5 0.7
v -1.5 3.5 0.3
v -1.4 3.5 0.3
v 1.5 3.5 0.3
v 1.6 3.5 0.3
v -1.4 3.6 0.7
v -1.3 3.6 0.7
v 1.4 3.6 0.7
v 1.5 3.6 0.7
v -1.4 3.6 0.3
v -1.3 3.6 0.3
v 1.4 3.6 0.3
v 1.5 3.6 0.3
v -1.3 3.7 0.7
v -1 3.7 0.7
v 1 3.7 0.7
v 1.4 3.7 0.7
v -1.3 3.7 0.3
v -1 3.7 0.3
v 1 3.7 0.3
v 1.4 3.7 0.3
v -1 4.1 1.3
v 1 4.1 1.3
v -0.9 4.1 1.2
v 0.9 4.1 1.2
v -0.9 4.1 -0.2
v 0.9 4.1 -0.2
v -1 4.1 -0.3
v 1 4.1 -0.3
v -0.9 4.2 1.2
v 0.9 4.2 1.2
v -0.9 4.2 -0.2
v 0.9 4.2 -0.2

# faces
f 3/4/1 2/4/1 1/4/1
f 4/4/1 2/4/1 3/4/1
f 7/4/1 6/4/1 5/4/1
f 8/4/1 6/4/1 7/4/1
f 11/4/1 10/4/1 9/4/1
f 12/4/1 10/4/1 11/4/1
f 15/4/1 14/4/1 13/4/1
f 16/4/1 14/4/1 15/4/1
f 21/4/1 18/4/1 17/4/1
f 21/4/1 20/4/1 19/4/1
f 21/4/1 19/4/1 18/4/1
f 22/4/1 20/4/1 21/4/1
f 23/4/1 21/4/1 17/4/1
f 24/4/1 20/4/1 22/4/1
f 25/4/1 23/4/1 17/4/1
f 25/4/1 24/4/1 23/4/1
f 26/4/1 20/4/1 24/4/1
f 26/4/1 24/4/1 25/4/1
f 29/4/1 28/4/1 27/4/1
f 30/4/1 28/4/1 29/4/1
f 37/2/1 33/2/1 32/2/1
f 37/3/1 34/3/1 33/3/1
f 38/2/1 35/2/1 34/2/1
f 38/3/1 34/3/1 37/3/1
f 39/3/1 32/3/1 31/3/1
f 40/2/1 37/2/1 32/2/1
f 40/3/1 32/3/1 39/3/1
f 41/2/1 37/2/1 40/2/1
f 42/2/1 35/2/1 38/2/1
f 43/3/1 36/3/1 35/3/1
f 43/2/1 35/2/1 42/2/1
f 44/3/1 36/3/1 43/3/1
f 45/4/1 41/4/1 40/4/1
f 45/4/1 40/4/1 39/4/1
f 46/4/1 41/4/1 45/4/1
f 47/4/1 44/4/1 43/4/1
f 47/4/1 43/4/1 42/4/1
f 48/4/1 44/4/1 47/4/1
f 51/4/1 50/4/1 49/4/1
f 52/4/1 50/4/1 51/4/1
f 53/4/1 50/4/1 52/4/1
f 54/4/1 50/4/1 53/4/1
f 57/5/1 56/5/1 55/5/1
f 58/5/1 56/5/1 57/5/1
f 61/4/1 60/4/1 59/4/1
f 63/4/1 61/4/1 59/4/1
f 63/4/1 62/4/1 61/4/1
f 64/4/1 62/4/1 63/4/1
f 67/1/1 66/1/1 65/1/1
f 68/1/1 66/1/1 67/1/1
f 71/4/1 70/4/1 69/4/1
f 72/4/1 70/4/1 71/4/1
f 76/4/1 74/4/1 73/4/1
f 77/4/1 76/4/1 75/4/1
f 78/4/1 74/4/1 76/4/1
f 78/4/1 76/4/1 77/4/1
f 81/4/1 80/4/1 79/4/1
f 82/4/1 80/4/1 81/4/1
f 85/4/1 84/4/1 83/4/1
f 86/4/1 84/4/1 85/4/1
f 87/4/1 84/4/1 86/4/1
f 88/4/1 84/4/1 87/4/1
f 91/5/1 90/5/1 89/5/1
f 92/5/1 90/5/1 91/5/1
f 95/4/1 94/4/1 93/4/1
f 96/4/1 94/4/1 95/4/1
f 99/4/1 98/4/1 97/4/1
f 100/4/1 98/4/1 99/4/1
f 101/4/2 102/4/2 103/4/2
f 103/4/2 102/4/2 104/4/2
f 104/4/2 102/4/2 105/4/2
f 105/4/2 102/4/2 106/4/2
f 109/4/2 110/4/2 111/4/2
f 107/5/2 108/5/2 113/5/2
f 113/5/2 108/5/2 114/5/2
f 111/4/2 112/4/2 115/4/2
f 109/4/2 111/4/2 115/4/2
f 115/4/2 112/4/2 116/4/2
f 117/4/2 118/4/2 119/4/2
f 119/4/2 118/4/2 120/4/2
f 121/4/2 122/4/2 124/4/2
f 123/4/2 124/4/2 125/4/2
f 124/4/2 122/4/2 126/4/2
f 125/4/2 124/4/2 126/4/2
f 127/4/2 128/4/2 129/4/2
f 129/4/2 128/4/2 130/4/2
f 131/1/2 132/1/2 133/1/2
f 133/1/2 132/1/2 134/1/2
f 135/4/2 136/4/2 137/4/2
f 137/4/2 136/4/2 138/4/2
f 139/4/2 140/4/2 141/4/2
f 141/4/2 140/4/2 142/4/2
f 143/4/2 144/4/2 145/4/2
f 145/4/2 144/4/2 146/4/2
f 146/4/2 144/4/2 147/4/2
f 147/4/2 144/4/2 148/4/2
f 149/5/2 150/5/2 151/5/2
f 151/5/2 150/5/2 152/5/2
f 154/2/2 155/2/2 159/2/2
f 155/3/2 156/3/2 159/3/2
f 156/2/2 157/2/2 160/2/2
f 159/3/2 156/3/2 160/3/2
f 153/3/2 154/3/2 161/3/2
f 154/2/2 159/2/2 162/2/2
f 161/3/2 154/3/2 162/3/2
f 162/2/2 159/2/2 163/2/2
f 160/2/2 157/2/2 164/2/2
f 157/3/2 158/3/2 165/3/2
f 164/2/2 157/2/2 165/2/2
f 165/3/2 158/3/2 166/3/2
f 162/4/2 163/4/2 167/4/2
f 161/4/2 162/4/2 167/4/2
f 167/4/2 163/4/2 168/4/2
f 165/4/2 166/4/2 169/4/2
f 164/4/2 165/4/2 169/4/2
f 169/4/2 166/4/2 170/4/2
f 171/4/2 172/4/2 173/4/2
f 173/4/2 172/4/2 174/4/2
f 175/4/2 176/4/2 179/4/2
f 177/4/2 178/4/2 179/4/2
f 176/4/2 177/4/2 179/4/2
f 179/4/2 178/4/2 180/4/2
f 175/4/2 179/4/2 181/4/2
f 180/4/2 178/4/2 182/4/2
f 175/4/2 181/4/2 183/4/2
f 181/4/2 182/4/2 183/4/2
f 182/4/2 178/4/2 184/4/2
f 183/4/2 182/4/2 184/4/2
f 185/4/2 186/4/2 187/4/2
f 187/4/2 186/4/2 188/4/2
f 189/4/2 190/4/2 191/4/2
f 191/4/2 190/4/2 192/4/2
f 193/4/2 194/4/2 195/4/2
f 195/4/2 194/4/2 196/4/2
f 197/4/2 198/4/2 199/4/2
f 199/4/2 198/4/2 200/4/2
f 203/5/3 202/5/3 201/5/3
f 204/5/3 202/5/3 203/5/3
f 207/1/3 206/1/3 205/1/3
f 208/1/3 206/1/3 207/1/3
f 211/5/3 210/5/3 209/5/3
f 212/5/3 210/5/3 211/5/3
f 215/4/3 214/4/3 213/4/3
f 216/4/3 214/4/3 215/4/3
f 217/4/3 215/4/3 213/4/3
f 218/4/3 214/4/3 216/4/3
f 219/4/3 217/4/3 213/4/3
f 219/4/3 218/4/3 217/4/3
f 220/4/3 218/4/3 219/4/3
f 221/4/3 219/4/3 213/4/3
f 222/4/3 218/4/3 220/4/3
f 223/4/3 218/4/3 222/4/3
f 223/4/3 222/4/3 221/4/3
f 224/4/3 214/4/3 218/4/3
f 224/4/3 218/4/3 223/4/3
f 225/4/3 223/4/3 221/4/3
f 226/4/3 214/4/3 224/4/3
f 227/4/3 225/4/3 221/4/3
f 227/4/3 226/4/3 225/4/3
f 227/4/3 221/4/3 213/4/3
f 228/4/3 214/4/3 226/4/3
f 228/4/3 226/4/3 227/4/3
f 231/4/3 230/4/3 229/4/3
f 232/4/3 230/4/3 231/4/3
f 236/3/3 234/3/3 233/3/3
f 237/4/3 235/4/3 234/4/3
f 237/3/3 234/3/3 236/3/3
f 238/2/3 237/2/3 236/2/3
f 239/4/3 235/4/3 237/4/3
f 239/2/3 237/2/3 238/2/3
f 240/3/3 239/3/3 238/3/3
f 241/4/3 235/4/3 239/4/3
f 241/3/3 239/3/3 240/3/3
f 242/2/3 241/2/3 240/2/3
f 243/4/3 235/4/3 241/4/3
f 243/2/3 241/2/3 242/2/3
f 244/3/3 243/3/3 242/3/3
f 245/4/3 235/4/3 243/4/3
f 245/3/3 243/3/3 244/3/3
f 246/2/3 245/2/3 244/2/3
f 247/4/3 235/4/3 245/4/3
f 247/2/3 245/2/3 246/2/3
f 248/3/3 247/3/3 246/3/3
f 249/4/3 235/4/3 247/4/3
f 249/3/3 247/3/3 248/3/3
f 250/2/3 249/2/3 248/2/3
f 251/4/3 235/4/3 249/4/3
f 251/2/3 249/2/3 250/2/3
f 252/3/3 251/3/3 250/3/3
f 253/4/3 235/4/3 251/4/3
f 253/3/3 251/3/3 252/3/3
f 254/4/3 235/4/3 253/4/3
f 257/4/3 256/4/3 255/4/3
f 258/4/3 256/4/3 257/4/3
f 261/4/3 260/4/3 259/4/3
f 262/4/3 260/4/3 261/4/3
f 265/4/3 264/4/3 263/4/3
f 266/4/3 264/4/3 265/4/3
f 269/4/3 268/4/3 267/4/3
f 270/4/3 268/4/3 269/4/3
f 273/4/3 272/4/3 271/4/3
f 275/4/3 274/4/3 273/4/3
f 279/4/3 278/4/3 277/4/3
f 280/4/3 273/4/3 271/4/3
f 280/4/3 275/4/3 273/4/3
f 280/4/3 276/4/3 275/4/3
f 281/4/3 276/4/3 280/4/3
f 282/4/3 279/4/3 277/4/3
f 283/4/3 279/4/3 282/4/3
f 284/4/3 279/4/3 283/4/3
f 287/4/3 286/4/3 285/4/3
f 288/4/3 286/4/3 287/4/3
f 291/4/3 290/4/3 289/4/3
f 292/4/3 290/4/3 291/4/3
f 296/4/3 294/4/3 293/4/3
f 296/4/3 295/4/3 294/4/3
f 299/4/3 296/4/3 293/4/3
f 300/4/3 296/4/3 299/4/3
f 301/4/3 298/4/3 297/4/3
f 302/4/3 298/4/3 301/4/3
f 303/4/3 301/4/3 297/4/3
f 304/4/3 301/4/3 303/4/3
f 305/4/3 303/4/3 297/4/3
f 306/4/3 303/4/3 305/4/3
f 309/4/3 308/4/3 307/4/3
f 310/4/3 308/4/3 309/4/3
f 313/4/3 312/4/3 311/4/3
f 314/4/3 312/4/3 313/4/3
f 317/4/3 316/4/3 315/4/3
f 318/4/3 316/4/3 317/4/3
f 321/4/3 320/4/3 319/4/3
f 322/4/3 320/4/3 321/4/3
f 325/4/3 324/4/3 323/4/3
f 326/4/3 324/4/3 325/4/3
f 327/4/4 328/4/4 329/4/4
f 329/4/4 328/4/4 330/4/4
f 331/4/4 332/4/4 333/4/4
f 333/4/4 332/4/4 334/4/4
f 335/4/4 336/4/4 337/4/4
f 337/4/4 336/4/4 338/4/4
f 339/4/4 340/4/4 341/4/4
f 341/4/4 340/4/4 342/4/4
f 343/4/4 344/4/4 345/4/4
f 345/4/4 344/4/4 346/4/4
f 347/4/4 348/4/4 349/4/4
f 349/4/4 348/4/4 350/4/4
f 351/4/4 352/4/4 353/4/4
f 353/4/4 352/4/4 354/4/4
f 355/4/4 356/4/4 357/4/4
f 357/4/4 358/4/4 359/4/4
f 361/4/4 362/4/4 363/4/4
f 355/4/4 357/4/4 364/4/4
f 357/4/4 359/4/4 364/4/4
f 359/4/4 360/4/4 364/4/4
f 364/4/4 360/4/4 365/4/4
f 361/4/4 363/4/4 366/4/4
f 366/4/4 363/4/4 367/4/4
f 367/4/4 363/4/4 368/4/4
f 369/4/4 370/4/4 371/4/4
f 371/4/4 370/4/4 372/4/4
f 373/4/4 374/4/4 376/4/4
f 374/4/4 375/4/4 376/4/4
f 373/4/4 376/4/4 379/4/4
f 379/4/4 376/4/4 380/4/4
f 377/4/4 378/4/4 381/4/4
f 381/4/4 378/4/4 382/4/4
f 377/4/4 381/4/4 383/4/4
f 383/4/4 381/4/4 384/4/4
f 377/4/4 383/4/4 385/4/4
f 385/4/4 383/4/4 386/4/4
f 387/4/4 388/4/4 389/4/4
f 389/4/4 388/4/4 390/4/4
f 391/3/4 392/3/4 394/3/4
f 392/4/4 393/4/4 395/4/4
f 394/3/4 392/3/4 395/3/4
f 394/2/4 395/2/4 396/2/4
f 395/4/4 393/4/4 397/4/4
f 396/2/4 395/2/4 397/2/4
f 396/3/4 397/3/4 398/3/4
f 397/4/4 393/4/4 399/4/4
f 398/3/4 397/3/4 399/3/4
f 398/2/4 399/2/4 400/2/4
f 399/4/4 393/4/4 401/4/4
f 400/2/4 399/2/4 401/2/4
f 400/3/4 401/3/4 402/3/4
f 401/4/4 393/4/4 403/4/4
f 402/3/4 401/3/4 403/3/4
f 402/2/4 403/2/4 404/2/4
f 403/4/4 393/4/4 405/4/4
f 404/2/4 403/2/4 405/2/4
f 404/3/4 405/3/4 406/3/4
f 405/4/4 393/4/4 407/4/4
f 406/3/4 405/3/4 407/3/4
f 406/2/4 407/2/4 408/2/4
f 407/4/4 393/4/4 409/4/4
f 408/2/4 407/2/4 409/2/4
f 408/3/4 409/3/4 410/3/4
f 409/4/4 393/4/4 411/4/4
f 410/3/4 409/3/4 411/3/4
f 411/4/4 393/4/4 412/4/4
f 413/4/4 414/4/4 415/4/4
f 415/4/4 414/4/4 416/4/4
f 417/4/4 418/4/4 419/4/4
f 419/4/4 418/4/4 420/4/4
f 425/4/5 422/4/5 421/4/5
f 426/4/5 422/4/5 425/4/5
f 427/4/5 424/4/5 423/4/5
f 428/4/5 424/4/5 427/4/5
f 439/3/5 430/3/5 429/3/5
f 439/2/5 431/2/5 430/2/5
f 440/3/5 432/3/5 431/3/5
f 440/2/5 431/2/5 439/2/5
f 441/2/5 433/2/5 432/2/5
f 441/3/5 432/3/5 440/3/5
f 442/3/5 434/3/5 433/3/5
f 442/2/5 433/2/5 441/2/5
f 443/2/5 435/2/5 434/2/5
f 443/3/5 434/3/5 442/3/5
f 444/3/5 436/3/5 435/3/5
f 444/2/5 435/2/5 443/2/5
f 445/2/5 437/2/5 436/2/5
f 445/3/5 436/3/5 444/3/5
f 446/3/5 438/3/5 437/3/5
f 446/2/5 437/2/5 445/2/5
f 447/3/5 445/3/5 444/3/5
f 447/3/5 444/3/5 443/3/5
f 447/3/5 446/3/5 445/3/5
f 447/3/5 443/3/5 442/3/5
f 447/3/5 442/3/5 441/3/5
f 447/3/5 441/3/5 440/3/5
f 447/3/5 440/3/5 439/3/5
f 447/3/5 439/3/5 429/3/5
f 448/3/5 446/3/5 447/3/5
f 449/3/5 446/3/5 448/3/5
f 450/3/5 438/3/5 446/3/5
f 450/3/5 446/3/5 449/3/5
f 451/2/5 448/2/5 447/2/5
f 452/3/5 449/3/5 448/3/5
f 452/2/5 448/2/5 451/2/5
f 453/3/5 449/3/5 452/3/5
f 454/3/5 449/3/5 453/3/5
f 455/3/5 449/3/5 454/3/5
f 456/2/5 450/2/5 449/2/5
f 456/3/5 449/3/5 455/3/5
f 457/2/5 450/2/5 456/2/5
f 458/3/5 452/3/5 451/3/5
f 458/3/5 453/3/5 452/3/5
f 459/3/5 455/3/5 454/3/5
f 460/3/5 455/3/5 459/3/5
f 461/3/5 457/3/5 456/3/5
f 462/3/5 458/3/5 451/3/5
f 462/3/5 461/3/5 460/3/5
f 462/3/5 460/3/5 459/3/5
f 462/3/5 459/3/5 458/3/5
f 463/3/5 461/3/5 462/3/5
f 464/3/5 457/3/5 461/3/5
f 464/3/5 461/3/5 463/3/5
f 465/3/5 457/3/5 464/3/5
f 466/2/5 463/2/5 462/2/5
f 467/3/5 464/3/5 463/3/5
f 467/2/5 463/2/5 466/2/5
f 468/2/5 465/2/5 464/2/5
f 468/3/5 464/3/5 467/3/5
f 469/2/5 465/2/5 468/2/5
f 470/3/5 467/3/5 466/3/5
f 470/3/5 468/3/5 467/3/5
f 470/3/5 469/3/5 468/3/5
f 471/3/5 469/3/5 470/3/5
f 472/3/5 469/3/5 471/3/5
f 473/3/5 469/3/5 472/3/5
f 474/3/5 469/3/5 473/3/5
f 475/3/5 469/3/5 474/3/5
f 476/3/5 469/3/5 475/3/5
f 477/3/5 469/3/5 476/3/5
f 478/3/5 470/3/5 466/3/5
f 479/2/5 471/2/5 470/2/5
f 479/3/5 470/3/5 478/3/5
f 480/3/5 472/3/5 471/3/5
f 480/2/5 471/2/5 479/2/5
f 481/2/5 473/2/5 472/2/5
f 481/3/5 472/3/5 480/3/5
f 482/3/5 474/3/5 473/3/5
f 482/2/5 473/2/5 481/2/5
f 483/2/5 475/2/5 474/2/5
f 483/3/5 474/3/5 482/3/5
f 484/3/5 476/3/5 475/3/5
f 484/2/5 475/2/5 483/2/5
f 485/2/5 477/2/5 476/2/5
f 485/3/5 476/3/5 484/3/5
f 486/3/5 469/3/5 477/3/5
f 486/2/5 477/2/5 485/2/5
f 487/3/5 469/3/5 486/3/5
f 492/4/5 489/4/5 488/4/5
f 493/4/5 489/4/5 492/4/5
f 494/4/5 491/4/5 490/4/5
f 495/4/5 491/4/5 494/4/5
f 498/4/5 497/4/5 496/4/5
f 499/4/5 497/4/5 498/4/5
f 500/4/5 498/4/5 496/4/5
f 501/4/5 498/4/5 500/4/5
f 502/4/5 497/4/5 499/4/5
f 503/4/5 497/4/5 502/4/5
f 508/4/5 505/4/5 504/4/5
f 509/4/5 507/4/5 506/4/5
f 510/4/5 508/4/5 504/4/5
f 510/4/5 509/4/5 508/4/5
f 511/4/5 507/4/5 509/4/5
f 511/4/5 509/4/5 510/4/5
f 514/1/5 513/1/5 512/1/5
f 515/1/5 513/1/5 514/1/5
f 520/5/5 517/5/5 516/5/5
f 521/5/5 517/5/5 520/5/5
f 522/5/5 519/5/5 518/5/5
f 523/5/5 519/5/5 522/5/5
f 528/4/5 525/4/5 524/4/5
f 529/4/5 525/4/5 528/4/5
f 530/4/5 527/4/5 526/4/5
f 531/4/5 527/4/5 530/4/5
f 534/4/5 533/4/5 532/4/5
f 535/4/5 533/4/5 534/4/5
f 537/4/5 536/4/5 535/4/5
f 538/4/5 536/4/5 537/4/5
f 540/4/5 539/4/5 538/4/5
f 541/4/5 539/4/5 540/4/5
f 546/4/5 543/4/5 542/4/5
f 547/4/5 543/4/5 546/4/5
f 548/4/5 545/4/5 544/4/5
f 549/4/5 545/4/5 548/4/5
f 552/4/5 551/4/5 550/4/5
f 553/4/5 551/4/5 552/4/5
f 554/4/6 555/4/6 558/4/6
f 558/4/6 555/4/6 559/4/6
f 556/4/6 557/4/6 560/4/6
f 560/4/6 557/4/6 561/4/6
f 562/4/6 563/4/6 566/4/6
f 566/4/6 563/4/6 567/4/6
f 564/4/6 565/4/6 568/4/6
f 568/4/6 565/4/6 569/4/6
f 570/4/6 571/4/6 572/4/6
f 572/4/6 571/4/6 573/4/6
f 573/4/6 574/4/6 575/4/6
f 575/4/6 574/4/6 576/4/6
f 577/1/6 578/1/6 579/1/6
f 579/1/6 578/1/6 580/1/6
f 581/4/6 582/4/6 583/4/6
f 583/4/6 582/4/6 584/4/6
f 584/4/6 585/4/6 586/4/6
f 586/4/6 585/4/6 587/4/6
f 587/4/6 588/4/6 589/4/6
f 589/4/6 588/4/6 590/4/6
f 591/4/6 592/4/6 593/4/6
f 593/4/6 592/4/6 594/4/6
f 594/4/6 595/4/6 596/4/6
f 596/4/6 595/4/6 597/4/6
f 598/4/6 599/4/6 600/4/6
f 600/4/6 599/4/6 601/4/6
f 602/5/6 603/5/6 606/5/6
f 606/5/6 603/5/6 607/5/6
f 604/5/6 605/5/6 608/5/6
f 608/5/6 605/5/6 609/5/6
f 610/4/6 611/4/6 614/4/6
f 614/4/6 611/4/6 615/4/6
f 612/4/6 613/4/6 616/4/6
f 616/4/6 613/4/6 617/4/6
f 618/4/6 619/4/6 622/4/6
f 622/4/6 619/4/6 623/4/6
f 620/4/6 621/4/6 624/4/6
f 624/4/6 621/4/6 625/4/6
f 626/4/6 627/4/6 630/4/6
f 630/4/6 627/4/6 631/4/6
f 628/4/6 629/4/6 632/4/6
f 632/4/6 629/4/6 633/4/6
f 634/4/6 635/4/6 636/4/6
f 636/4/6 635/4/6 637/4/6
f 634/4/6 636/4/6 638/4/6
f 637/4/6 635/4/6 639/4/6
f 634/4/6 638/4/6 640/4/6
f 638/4/6 639/4/6 640/4/6
f 639/4/6 635/4/6 641/4/6
f 640/4/6 639/4/6 641/4/6
f 642/4/6 643/4/6 644/4/6
f 644/4/6 643/4/6 645/4/6
