# MagicaVoxel @ Ephtracy

# group
o 

# material
mtllib Junbi_Lv1.mtl
usemtl palette

# normals
vn -1 0 0
vn 1 0 0
vn 0 0 1
vn 0 0 -1
vn 0 -1 0
vn 0 1 0

# texcoords
vt 0.0371094 0.5
vt 0.373047 0.5
vt 0.775391 0.5
vt 0.994141 0.5

# verts
v -10 0 10
v -10 0 -10
v -10 0.1 10
v -10 0.1 -10
v 0.5 0.1 1.2
v 0.5 0.1 -1.8
v 0.5 1.5 0
v 0.5 1.5 -0.599999
v 0.5 2.3 1.2
v 0.5 2.3 0
v 0.5 2.3 -0.599999
v 0.5 2.3 -1.8
v 2.3 0.1 5
v 2.3 0.1 2
v 2.3 1.5 3.8
v 2.3 1.5 3.2
v 2.3 2.3 5
v 2.3 2.3 3.8
v 2.3 2.3 3.2
v 2.3 2.3 2
v 3.9 0.1 1.2
v 3.9 0.1 -1.8
v 3.9 0.5 -1.2
v 3.9 0.5 -1.6
v 3.9 0.9 -1.2
v 3.9 0.9 -1.6
v 3.9 1.5 0
v 3.9 1.5 -0.599999
v 3.9 2.3 1.2
v 3.9 2.3 0
v 3.9 2.3 -0.599999
v 3.9 2.3 -1.8
v 5.7 0.1 5
v 5.7 0.1 2
v 5.7 0.5 2.6
v 5.7 0.5 2.2
v 5.7 0.9 2.6
v 5.7 0.9 2.2
v 5.7 1.5 3.8
v 5.7 1.5 3.2
v 5.7 2.3 5
v 5.7 2.3 3.8
v 5.7 2.3 3.2
v 5.7 2.3 2
v 10 0 10
v 10 0 -10
v 10 0.1 10
v 10 0.1 -10
v -10 0 10
v -10 0.1 10
v 10 0 10
v 10 0.1 10
v 2.3 0.1 5
v 2.3 2.3 5
v 5.7 0.1 5
v 5.7 2.3 5
v 0.5 0.1 1.2
v 0.5 2.3 1.2
v 3.9 0.1 1.2
v 3.9 2.3 1.2
v 2.3 0.1 2
v 2.3 2.3 2
v 5.7 0.1 2
v 5.7 2.3 2
v 0.5 0.1 -1.8
v 0.5 2.3 -1.8
v 3.9 0.1 -1.8
v 3.9 2.3 -1.8
v -10 0 -10
v -10 0.1 -10
v 10 0 -10
v 10 0.1 -10
v -10 0 10
v 10 0 10
v -10 0 -10
v 10 0 -10
v -10 0.1 10
v 10 0.1 10
v 2.3 0.1 5
v 5.7 0.1 5
v 2.3 0.1 2
v 5.7 0.1 2
v 0.5 0.1 1.2
v 3.9 0.1 1.2
v 0.5 0.1 -1.8
v 3.9 0.1 -1.8
v -10 0.1 -10
v 10 0.1 -10
v 2.3 2.3 5
v 5.7 2.3 5
v 2.3 2.3 3.8
v 5.7 2.3 3.8
v 2.3 2.3 3.2
v 5.7 2.3 3.2
v 2.3 2.3 2
v 5.7 2.3 2
v 0.5 2.3 1.2
v 3.9 2.3 1.2
v 0.5 2.3 0
v 3.9 2.3 0
v 0.5 2.3 -0.599999
v 3.9 2.3 -0.599999
v 0.5 2.3 -1.8
v 3.9 2.3 -1.8

# faces
f 3/3/1 2/3/1 1/3/1
f 4/3/1 2/3/1 3/3/1
f 7/2/1 6/2/1 5/2/1
f 8/2/1 6/2/1 7/2/1
f 9/2/1 7/2/1 5/2/1
f 10/1/1 8/1/1 7/1/1
f 10/2/1 7/2/1 9/2/1
f 11/2/1 6/2/1 8/2/1
f 11/1/1 8/1/1 10/1/1
f 12/2/1 6/2/1 11/2/1
f 15/2/1 14/2/1 13/2/1
f 16/2/1 14/2/1 15/2/1
f 17/2/1 15/2/1 13/2/1
f 18/1/1 16/1/1 15/1/1
f 18/2/1 15/2/1 17/2/1
f 19/2/1 14/2/1 16/2/1
f 19/1/1 16/1/1 18/1/1
f 20/2/1 14/2/1 19/2/1
f 21/2/2 22/2/2 23/2/2
f 23/2/2 22/2/2 24/2/2
f 21/2/2 23/2/2 25/2/2
f 23/4/2 24/4/2 25/4/2
f 24/2/2 22/2/2 26/2/2
f 25/4/2 24/4/2 26/4/2
f 21/2/2 25/2/2 27/2/2
f 25/2/2 26/2/2 27/2/2
f 27/2/2 26/2/2 28/2/2
f 21/2/2 27/2/2 29/2/2
f 27/1/2 28/1/2 30/1/2
f 29/2/2 27/2/2 30/2/2
f 28/2/2 26/2/2 31/2/2
f 30/1/2 28/1/2 31/1/2
f 26/2/2 22/2/2 32/2/2
f 31/2/2 26/2/2 32/2/2
f 33/2/2 34/2/2 35/2/2
f 35/2/2 34/2/2 36/2/2
f 33/2/2 35/2/2 37/2/2
f 35/4/2 36/4/2 37/4/2
f 36/2/2 34/2/2 38/2/2
f 37/4/2 36/4/2 38/4/2
f 33/2/2 37/2/2 39/2/2
f 37/2/2 38/2/2 39/2/2
f 39/2/2 38/2/2 40/2/2
f 33/2/2 39/2/2 41/2/2
f 39/1/2 40/1/2 42/1/2
f 41/2/2 39/2/2 42/2/2
f 40/2/2 38/2/2 43/2/2
f 42/1/2 40/1/2 43/1/2
f 38/2/2 34/2/2 44/2/2
f 43/2/2 38/2/2 44/2/2
f 45/3/2 46/3/2 47/3/2
f 47/3/2 46/3/2 48/3/2
f 51/3/3 50/3/3 49/3/3
f 52/3/3 50/3/3 51/3/3
f 55/2/3 54/2/3 53/2/3
f 56/2/3 54/2/3 55/2/3
f 59/2/3 58/2/3 57/2/3
f 60/2/3 58/2/3 59/2/3
f 61/2/4 62/2/4 63/2/4
f 63/2/4 62/2/4 64/2/4
f 65/2/4 66/2/4 67/2/4
f 67/2/4 66/2/4 68/2/4
f 69/3/4 70/3/4 71/3/4
f 71/3/4 70/3/4 72/3/4
f 75/3/5 74/3/5 73/3/5
f 76/3/5 74/3/5 75/3/5
f 77/3/6 78/3/6 79/3/6
f 79/3/6 78/3/6 80/3/6
f 77/3/6 79/3/6 81/3/6
f 80/3/6 78/3/6 82/3/6
f 77/3/6 81/3/6 83/3/6
f 81/3/6 82/3/6 83/3/6
f 83/3/6 82/3/6 84/3/6
f 77/3/6 83/3/6 85/3/6
f 84/3/6 82/3/6 86/3/6
f 77/3/6 85/3/6 87/3/6
f 85/3/6 86/3/6 87/3/6
f 82/3/6 78/3/6 88/3/6
f 87/3/6 86/3/6 88/3/6
f 86/3/6 82/3/6 88/3/6
f 89/2/6 90/2/6 91/2/6
f 91/2/6 90/2/6 92/2/6
f 91/1/6 92/1/6 93/1/6
f 93/1/6 92/1/6 94/1/6
f 93/2/6 94/2/6 95/2/6
f 95/2/6 94/2/6 96/2/6
f 97/2/6 98/2/6 99/2/6
f 99/2/6 98/2/6 100/2/6
f 99/1/6 100/1/6 101/1/6
f 101/1/6 100/1/6 102/1/6
f 101/2/6 102/2/6 103/2/6
f 103/2/6 102/2/6 104/2/6
