# MagicaVoxel @ Ephtracy

# group
o 

# material
mtllib goburin_02.mtl
usemtl palette

# normals
vn -1 0 0
vn 1 0 0
vn 0 0 1
vn 0 0 -1
vn 0 -1 0
vn 0 1 0

# texcoords
vt 0.0605469 0.5
vt 0.369141 0.5
vt 0.419922 0.5
vt 0.794922 0.5
vt 0.994141 0.5

# verts
v -1.5 3.3 0.7
v -1.5 3.3 0.3
v -1.5 3.5 0.7
v -1.5 3.5 0.3
v -1.4 3.5 0.7
v -1.4 3.5 0.3
v -1.4 3.6 0.7
v -1.4 3.6 0.3
v -1.3 3.6 0.7
v -1.3 3.6 0.3
v -1.3 3.7 0.7
v -1.3 3.7 0.3
v -1.1 1.1 0.7
v -1.1 1.1 0.3
v -1.1 2.5 0.7
v -1.1 2.5 0.3
v -1 2.5 1.3
v -1 2.5 0.7
v -1 2.5 0.3
v -1 2.5 -0.3
v -1 3.3 0.7
v -1 3.3 0.3
v -1 3.7 0.7
v -1 3.7 0.3
v -1 4.1 1.3
v -1 4.1 -0.3
v -0.9 4.1 1.2
v -0.9 4.1 -0.2
v -0.9 4.2 1.2
v -0.9 4.2 -0.2
v -0.8 0.6 1
v -0.8 0.6 0.8
v -0.8 0.6 0.7
v -0.8 0.6 0.3
v -0.8 0.6 0.2
v -0.8 0.6 0
v -0.8 1.1 0.7
v -0.8 1.1 0.3
v -0.8 1.2 1
v -0.8 1.2 0.8
v -0.8 1.2 0.7
v -0.8 1.2 0.3
v -0.8 1.2 0.2
v -0.8 1.2 0
v -0.8 1.3 1
v -0.8 1.3 0.7
v -0.8 1.3 0.3
v -0.8 1.3 0
v -0.8 2.5 1
v -0.8 2.5 0.7
v -0.8 2.5 0.3
v -0.8 2.5 0
v -0.6 0 0.9
v -0.6 0 0.4
v -0.6 0.1 0.9
v -0.6 0.1 0.7
v -0.6 0.6 0.7
v -0.6 0.6 0.4
v -0.6 3.2 1.4
v -0.6 3.2 1.3
v -0.6 3.5 1.4
v -0.6 3.5 1.3
v -0.2 3.2 1.2
v -0.2 3.2 0.9
v -0.2 3.4 0.9
v -0.2 3.4 0.8
v -0.2 3.5 1.2
v -0.2 3.5 0.8
v -0.1 2.8 1.4
v -0.1 2.8 1.3
v -0.1 3.2 1.4
v -0.1 3.2 1.3
v -0.1 3.2 0.9
v -0.1 3.2 0.5
v -0.1 3.4 0.9
v -0.1 3.4 0.5
v 0 3.1 0.3
v 0 3.1 0.2
v 0 3.2 0.5
v 0 3.2 0.3
v 0 3.4 0.5
v 0 3.4 0.2
v 0.1 3.1 0.2
v 0.1 3.1 -0.1
v 0.1 3.4 0.2
v 0.1 3.4 -0.1
v 0.3 0 0.9
v 0.3 0 0.4
v 0.3 0.1 0.9
v 0.3 0.1 0.7
v 0.3 0.6 0.7
v 0.3 0.6 0.4
v 0.3 3.2 1.4
v 0.3 3.2 1.3
v 0.3 3.5 1.4
v 0.3 3.5 1.3
v 0.4 3.3 1.1
v 0.4 3.3 0.6
v 0.4 3.5 1.1
v 0.4 3.5 0.6
v 0.5 3.3 0.6
v 0.5 3.3 0.1
v 0.5 3.6 0.6
v 0.5 3.6 0.1
v -0.3 0 0.9
v -0.3 0 0.4
v -0.3 0.1 0.9
v -0.3 0.1 0.7
v -0.3 0.6 0.7
v -0.3 0.6 0.4
v -0.3 3.2 1.4
v -0.3 3.2 1.3
v -0.3 3.2 1.2
v -0.3 3.2 0.9
v -0.3 3.4 0.9
v -0.3 3.4 0.8
v -0.3 3.5 1.4
v -0.3 3.5 1.3
v -0.3 3.5 1.2
v -0.3 3.5 0.8
v -0.2 3.2 0.9
v -0.2 3.2 0.5
v -0.2 3.4 0.9
v -0.2 3.4 0.5
v -0.1 3.1 0.3
v -0.1 3.1 0.2
v -0.1 3.2 0.5
v -0.1 3.2 0.3
v -0.1 3.4 0.5
v -0.1 3.4 0.2
v 0 3.1 0.2
v 0 3.1 -0.1
v 0 3.4 0.2
v 0 3.4 -0.1
v 0.1 2.8 1.4
v 0.1 2.8 1.3
v 0.1 3.2 1.4
v 0.1 3.2 1.3
v 0.3 3.3 1.1
v 0.3 3.3 0.6
v 0.3 3.5 1.1
v 0.3 3.5 0.6
v 0.4 3.3 0.6
v 0.4 3.3 0.1
v 0.4 3.6 0.6
v 0.4 3.6 0.1
v 0.6 0 0.9
v 0.6 0 0.4
v 0.6 0.1 0.9
v 0.6 0.1 0.7
v 0.6 0.6 0.7
v 0.6 0.6 0.4
v 0.6 3.2 1.4
v 0.6 3.2 1.3
v 0.6 3.5 1.4
v 0.6 3.5 1.3
v 0.8 0.6 1
v 0.8 0.6 0.8
v 0.8 0.6 0.7
v 0.8 0.6 0.3
v 0.8 0.6 0.2
v 0.8 0.6 0
v 0.8 1.1 0.7
v 0.8 1.1 0.3
v 0.8 1.2 1
v 0.8 1.2 0.8
v 0.8 1.2 0.7
v 0.8 1.2 0.3
v 0.8 1.2 0.2
v 0.8 1.2 0
v 0.8 1.3 1
v 0.8 1.3 0.7
v 0.8 1.3 0.3
v 0.8 1.3 0
v 0.8 2.5 1
v 0.8 2.5 0.7
v 0.8 2.5 0.3
v 0.8 2.5 0
v 0.9 4.1 1.2
v 0.9 4.1 -0.2
v 0.9 4.2 1.2
v 0.9 4.2 -0.2
v 1 2.5 1.3
v 1 2.5 0.7
v 1 2.5 0.3
v 1 2.5 -0.3
v 1 3.3 0.7
v 1 3.3 0.3
v 1 3.7 0.7
v 1 3.7 0.3
v 1 4.1 1.3
v 1 4.1 -0.3
v 1.1 1.1 0.7
v 1.1 1.1 0.3
v 1.1 2.5 0.7
v 1.1 2.5 0.3
v 1.4 3.6 0.7
v 1.4 3.6 0.3
v 1.4 3.7 0.7
v 1.4 3.7 0.3
v 1.5 3.5 0.7
v 1.5 3.5 0.3
v 1.5 3.6 0.7
v 1.5 3.6 0.3
v 1.6 3.3 0.7
v 1.6 3.3 0.3
v 1.6 3.5 0.7
v 1.6 3.5 0.3
v -0.6 3.2 1.4
v -0.6 3.5 1.4
v -0.3 3.2 1.4
v -0.3 3.5 1.4
v -0.1 2.8 1.4
v -0.1 3.2 1.4
v 0.1 2.8 1.4
v 0.1 3.2 1.4
v 0.3 3.2 1.4
v 0.3 3.5 1.4
v 0.6 3.2 1.4
v 0.6 3.5 1.4
v -1 2.5 1.3
v -1 4.1 1.3
v -0.6 3.2 1.3
v -0.6 3.5 1.3
v -0.3 3.2 1.3
v -0.3 3.5 1.3
v -0.1 2.8 1.3
v -0.1 3.2 1.3
v 0.1 2.8 1.3
v 0.1 3.2 1.3
v 0.3 3.2 1.3
v 0.3 3.5 1.3
v 0.6 3.2 1.3
v 0.6 3.5 1.3
v 1 2.5 1.3
v 1 4.1 1.3
v -0.9 4.1 1.2
v -0.9 4.2 1.2
v 0.9 4.1 1.2
v 0.9 4.2 1.2
v -0.8 0.6 1
v -0.8 1.2 1
v -0.8 1.3 1
v -0.8 2.5 1
v -0.7 0.6 1
v -0.7 1.2 1
v -0.6 0.6 1
v -0.6 1.2 1
v -0.4 2.4 1
v -0.4 2.5 1
v -0.3 0.6 1
v -0.3 1.2 1
v -0.3 2.3 1
v -0.3 2.4 1
v -0.2 0.6 1
v -0.2 1.2 1
v -0.1 1.4 1
v -0.1 1.5 1
v -0.1 1.6 1
v -0.1 1.7 1
v -0.1 1.8 1
v -0.1 1.9 1
v -0.1 2 1
v -0.1 2.1 1
v -0.1 2.2 1
v -0.1 2.3 1
v 0.1 1.4 1
v 0.1 1.5 1
v 0.1 1.6 1
v 0.1 1.7 1
v 0.1 1.8 1
v 0.1 1.9 1
v 0.1 2 1
v 0.1 2.1 1
v 0.1 2.2 1
v 0.1 2.3 1
v 0.2 0.6 1
v 0.2 1.2 1
v 0.3 0.6 1
v 0.3 1.2 1
v 0.3 2.3 1
v 0.3 2.4 1
v 0.4 2.4 1
v 0.4 2.5 1
v 0.6 0.6 1
v 0.6 1.2 1
v 0.7 0.6 1
v 0.7 1.2 1
v 0.8 0.6 1
v 0.8 1.2 1
v 0.8 1.3 1
v 0.8 2.5 1
v -0.6 0 0.9
v -0.6 0.1 0.9
v -0.3 0 0.9
v -0.3 0.1 0.9
v -0.3 3.2 0.9
v -0.3 3.4 0.9
v -0.2 3.2 0.9
v -0.2 3.4 0.9
v 0.3 0 0.9
v 0.3 0.1 0.9
v 0.6 0 0.9
v 0.6 0.1 0.9
v -0.3 3.4 0.8
v -0.3 3.5 0.8
v -0.2 3.4 0.8
v -0.2 3.5 0.8
v -1.5 3.3 0.7
v -1.5 3.5 0.7
v -1.4 3.5 0.7
v -1.4 3.6 0.7
v -1.3 3.6 0.7
v -1.3 3.7 0.7
v -1.1 1.1 0.7
v -1.1 2.5 0.7
v -1 2.5 0.7
v -1 3.3 0.7
v -1 3.7 0.7
v -0.8 1.1 0.7
v -0.8 1.2 0.7
v -0.8 1.3 0.7
v -0.8 2.5 0.7
v -0.6 0.1 0.7
v -0.6 0.6 0.7
v -0.3 0.1 0.7
v -0.3 0.6 0.7
v 0.3 0.1 0.7
v 0.3 0.6 0.7
v 0.6 0.1 0.7
v 0.6 0.6 0.7
v 0.8 1.1 0.7
v 0.8 1.2 0.7
v 0.8 1.3 0.7
v 0.8 2.5 0.7
v 1 2.5 0.7
v 1 3.3 0.7
v 1 3.7 0.7
v 1.1 1.1 0.7
v 1.1 2.5 0.7
v 1.4 3.6 0.7
v 1.4 3.7 0.7
v 1.5 3.5 0.7
v 1.5 3.6 0.7
v 1.6 3.3 0.7
v 1.6 3.5 0.7
v 0.3 3.3 0.6
v 0.3 3.5 0.6
v 0.4 3.3 0.6
v 0.4 3.5 0.6
v -0.2 3.2 0.5
v -0.2 3.4 0.5
v -0.1 3.2 0.5
v -0.1 3.4 0.5
v -0.1 3.1 0.2
v -0.1 3.4 0.2
v 0 3.1 0.2
v 0 3.4 0.2
v 0.4 3.3 0.1
v 0.4 3.6 0.1
v 0.5 3.3 0.1
v 0.5 3.6 0.1
v 0 3.1 -0.1
v 0 3.4 -0.1
v 0.1 3.1 -0.1
v 0.1 3.4 -0.1
v -0.3 3.2 1.2
v -0.3 3.5 1.2
v -0.2 3.2 1.2
v -0.2 3.5 1.2
v 0.3 3.3 1.1
v 0.3 3.5 1.1
v 0.4 3.3 1.1
v 0.4 3.5 1.1
v -0.2 3.2 0.9
v -0.2 3.4 0.9
v -0.1 3.2 0.9
v -0.1 3.4 0.9
v 0.4 3.3 0.6
v 0.4 3.6 0.6
v 0.5 3.3 0.6
v 0.5 3.6 0.6
v -0.1 3.2 0.5
v -0.1 3.4 0.5
v 0 3.2 0.5
v 0 3.4 0.5
v -0.6 0 0.4
v -0.6 0.6 0.4
v -0.3 0 0.4
v -0.3 0.6 0.4
v 0.3 0 0.4
v 0.3 0.6 0.4
v 0.6 0 0.4
v 0.6 0.6 0.4
v -1.5 3.3 0.3
v -1.5 3.5 0.3
v -1.4 3.5 0.3
v -1.4 3.6 0.3
v -1.3 3.6 0.3
v -1.3 3.7 0.3
v -1.1 1.1 0.3
v -1.1 2.5 0.3
v -1 2.5 0.3
v -1 3.3 0.3
v -1 3.7 0.3
v -0.8 1.1 0.3
v -0.8 1.2 0.3
v -0.8 1.3 0.3
v -0.8 2.5 0.3
v -0.1 3.1 0.3
v -0.1 3.2 0.3
v 0 3.1 0.3
v 0 3.2 0.3
v 0.8 1.1 0.3
v 0.8 1.2 0.3
v 0.8 1.3 0.3
v 0.8 2.5 0.3
v 1 2.5 0.3
v 1 3.3 0.3
v 1 3.7 0.3
v 1.1 1.1 0.3
v 1.1 2.5 0.3
v 1.4 3.6 0.3
v 1.4 3.7 0.3
v 1.5 3.5 0.3
v 1.5 3.6 0.3
v 1.6 3.3 0.3
v 1.6 3.5 0.3
v 0 3.1 0.2
v 0 3.4 0.2
v 0.1 3.1 0.2
v 0.1 3.4 0.2
v -0.8 0.6 0
v -0.8 1.2 0
v -0.8 1.3 0
v -0.8 2.5 0
v -0.7 0.6 0
v -0.7 1.2 0
v -0.6 0.6 0
v -0.6 1.2 0
v -0.3 0.6 0
v -0.3 1.2 0
v -0.2 0.6 0
v -0.2 1.2 0
v 0.2 0.6 0
v 0.2 1.2 0
v 0.3 0.6 0
v 0.3 1.2 0
v 0.6 0.6 0
v 0.6 1.2 0
v 0.7 0.6 0
v 0.7 1.2 0
v 0.8 0.6 0
v 0.8 1.2 0
v 0.8 1.3 0
v 0.8 2.5 0
v -0.9 4.1 -0.2
v -0.9 4.2 -0.2
v 0.9 4.1 -0.2
v 0.9 4.2 -0.2
v -1 2.5 -0.3
v -1 4.1 -0.3
v 1 2.5 -0.3
v 1 4.1 -0.3
v -0.6 0 0.9
v -0.3 0 0.9
v 0.3 0 0.9
v 0.6 0 0.9
v -0.6 0 0.4
v -0.3 0 0.4
v 0.3 0 0.4
v 0.6 0 0.4
v -0.8 0.6 1
v -0.7 0.6 1
v -0.6 0.6 1
v -0.3 0.6 1
v -0.2 0.6 1
v 0.2 0.6 1
v 0.3 0.6 1
v 0.6 0.6 1
v 0.7 0.6 1
v 0.8 0.6 1
v -0.7 0.6 0.9
v -0.6 0.6 0.9
v -0.3 0.6 0.9
v -0.2 0.6 0.9
v 0.2 0.6 0.9
v 0.3 0.6 0.9
v 0.6 0.6 0.9
v 0.7 0.6 0.9
v -0.8 0.6 0.8
v -0.7 0.6 0.8
v 0.6 0.6 0.8
v 0.8 0.6 0.8
v -0.8 0.6 0.7
v -0.7 0.6 0.7
v -0.6 0.6 0.7
v -0.3 0.6 0.7
v 0.3 0.6 0.7
v 0.6 0.6 0.7
v 0.8 0.6 0.7
v -0.6 0.6 0.4
v -0.3 0.6 0.4
v 0.3 0.6 0.4
v 0.6 0.6 0.4
v -0.8 0.6 0.3
v -0.7 0.6 0.3
v 0.6 0.6 0.3
v 0.8 0.6 0.3
v -0.8 0.6 0.2
v -0.7 0.6 0.2
v 0.6 0.6 0.2
v 0.8 0.6 0.2
v -0.7 0.6 0.1
v -0.6 0.6 0.1
v -0.3 0.6 0.1
v -0.2 0.6 0.1
v 0.2 0.6 0.1
v 0.3 0.6 0.1
v 0.6 0.6 0.1
v 0.7 0.6 0.1
v -0.8 0.6 0
v -0.7 0.6 0
v -0.6 0.6 0
v -0.3 0.6 0
v -0.2 0.6 0
v 0.2 0.6 0
v 0.3 0.6 0
v 0.6 0.6 0
v 0.7 0.6 0
v 0.8 0.6 0
v -1.1 1.1 0.7
v -0.8 1.1 0.7
v 0.8 1.1 0.7
v 1.1 1.1 0.7
v -1.1 1.1 0.3
v -0.8 1.1 0.3
v 0.8 1.1 0.3
v 1.1 1.1 0.3
v -1 2.5 1.3
v 1 2.5 1.3
v -0.8 2.5 1
v -0.4 2.5 1
v 0.4 2.5 1
v 0.8 2.5 1
v -1 2.5 0.7
v -0.8 2.5 0.7
v 0.8 2.5 0.7
v 1 2.5 0.7
v -1 2.5 0.3
v -0.8 2.5 0.3
v 0.8 2.5 0.3
v 1 2.5 0.3
v -0.8 2.5 0
v 0.8 2.5 0
v -1 2.5 -0.3
v 1 2.5 -0.3
v -0.1 2.8 1.4
v 0.1 2.8 1.4
v -0.1 2.8 1.3
v 0.1 2.8 1.3
v -0.6 3.2 1.4
v -0.3 3.2 1.4
v 0.3 3.2 1.4
v 0.6 3.2 1.4
v -0.6 3.2 1.3
v -0.3 3.2 1.3
v 0.3 3.2 1.3
v 0.6 3.2 1.3
v -1.5 3.3 0.7
v -1 3.3 0.7
v 1 3.3 0.7
v 1.6 3.3 0.7
v -1.5 3.3 0.3
v -1 3.3 0.3
v 1 3.3 0.3
v 1.6 3.3 0.3
v -0.2 3.4 0.9
v -0.1 3.4 0.9
v -0.2 3.4 0.5
v -0.1 3.4 0.5
v 0 3.4 0.5
v -0.1 3.4 0.2
v 0 3.4 0.2
v 0.1 3.4 0.2
v 0 3.4 -0.1
v 0.1 3.4 -0.1
v -0.3 3.5 1.2
v -0.2 3.5 1.2
v 0.3 3.5 1.1
v 0.4 3.5 1.1
v -0.3 3.5 0.8
v -0.2 3.5 0.8
v 0.3 3.5 0.6
v 0.4 3.5 0.6
v 0.4 3.6 0.6
v 0.5 3.6 0.6
v 0.4 3.6 0.1
v 0.5 3.6 0.1
v -0.6 0.1 0.9
v -0.3 0.1 0.9
v 0.3 0.1 0.9
v 0.6 0.1 0.9
v -0.6 0.1 0.7
v -0.3 0.1 0.7
v 0.3 0.1 0.7
v 0.6 0.1 0.7
v -1.1 2.5 0.7
v -1 2.5 0.7
v 1 2.5 0.7
v 1.1 2.5 0.7
v -1.1 2.5 0.3
v -1 2.5 0.3
v 1 2.5 0.3
v 1.1 2.5 0.3
v -0.1 3.1 0.3
v 0 3.1 0.3
v -0.1 3.1 0.2
v 0 3.1 0.2
v 0.1 3.1 0.2
v 0 3.1 -0.1
v 0.1 3.1 -0.1
v -0.1 3.2 1.4
v 0.1 3.2 1.4
v -0.1 3.2 1.3
v 0.1 3.2 1.3
v -0.3 3.2 1.2
v -0.2 3.2 1.2
v -0.3 3.2 0.9
v -0.2 3.2 0.9
v -0.1 3.2 0.9
v -0.2 3.2 0.5
v -0.1 3.2 0.5
v 0 3.2 0.5
v -0.1 3.2 0.3
v 0 3.2 0.3
v 0.3 3.3 1.1
v 0.4 3.3 1.1
v 0.3 3.3 0.6
v 0.4 3.3 0.6
v 0.5 3.3 0.6
v 0.4 3.3 0.1
v 0.5 3.3 0.1
v -0.3 3.4 0.9
v -0.2 3.4 0.9
v -0.3 3.4 0.8
v -0.2 3.4 0.8
v -0.6 3.5 1.4
v -0.3 3.5 1.4
v 0.3 3.5 1.4
v 0.6 3.5 1.4
v -0.6 3.5 1.3
v -0.3 3.5 1.3
v 0.3 3.5 1.3
v 0.6 3.5 1.3
v -1.5 3.5 0.7
v -1.4 3.5 0.7
v 1.5 3.5 0.7
v 1.6 3.5 0.7
v -1.5 3.5 0.3
v -1.4 3.5 0.3
v 1.5 3.5 0.3
v 1.6 3.5 0.3
v -1.4 3.6 0.7
v -1.3 3.6 0.7
v 1.4 3.6 0.7
v 1.5 3.6 0.7
v -1.4 3.6 0.3
v -1.3 3.6 0.3
v 1.4 3.6 0.3
v 1.5 3.6 0.3
v -1.3 3.7 0.7
v -1 3.7 0.7
v 1 3.7 0.7
v 1.4 3.7 0.7
v -1.3 3.7 0.3
v -1 3.7 0.3
v 1 3.7 0.3
v 1.4 3.7 0.3
v -1 4.1 1.3
v 1 4.1 1.3
v -0.9 4.1 1.2
v 0.9 4.1 1.2
v -0.9 4.1 -0.2
v 0.9 4.1 -0.2
v -1 4.1 -0.3
v 1 4.1 -0.3
v -0.9 4.2 1.2
v 0.9 4.2 1.2
v -0.9 4.2 -0.2
v 0.9 4.2 -0.2

# faces
f 3/4/1 2/4/1 1/4/1
f 4/4/1 2/4/1 3/4/1
f 7/4/1 6/4/1 5/4/1
f 8/4/1 6/4/1 7/4/1
f 11/4/1 10/4/1 9/4/1
f 12/4/1 10/4/1 11/4/1
f 15/4/1 14/4/1 13/4/1
f 16/4/1 14/4/1 15/4/1
f 21/4/1 18/4/1 17/4/1
f 21/4/1 20/4/1 19/4/1
f 21/4/1 19/4/1 18/4/1
f 22/4/1 20/4/1 21/4/1
f 23/4/1 21/4/1 17/4/1
f 24/4/1 20/4/1 22/4/1
f 25/4/1 23/4/1 17/4/1
f 25/4/1 24/4/1 23/4/1
f 26/4/1 20/4/1 24/4/1
f 26/4/1 24/4/1 25/4/1
f 29/4/1 28/4/1 27/4/1
f 30/4/1 28/4/1 29/4/1
f 37/1/1 33/1/1 32/1/1
f 37/2/1 34/2/1 33/2/1
f 38/1/1 35/1/1 34/1/1
f 38/2/1 34/2/1 37/2/1
f 39/2/1 32/2/1 31/2/1
f 40/1/1 37/1/1 32/1/1
f 40/2/1 32/2/1 39/2/1
f 41/1/1 37/1/1 40/1/1
f 42/1/1 35/1/1 38/1/1
f 43/2/1 36/2/1 35/2/1
f 43/1/1 35/1/1 42/1/1
f 44/2/1 36/2/1 43/2/1
f 45/3/1 41/3/1 40/3/1
f 45/3/1 40/3/1 39/3/1
f 46/3/1 41/3/1 45/3/1
f 47/3/1 44/3/1 43/3/1
f 47/3/1 43/3/1 42/3/1
f 48/3/1 44/3/1 47/3/1
f 49/2/1 46/2/1 45/2/1
f 50/2/1 46/2/1 49/2/1
f 51/2/1 48/2/1 47/2/1
f 52/2/1 48/2/1 51/2/1
f 55/4/1 54/4/1 53/4/1
f 56/4/1 54/4/1 55/4/1
f 57/4/1 54/4/1 56/4/1
f 58/4/1 54/4/1 57/4/1
f 61/5/1 60/5/1 59/5/1
f 62/5/1 60/5/1 61/5/1
f 65/4/1 64/4/1 63/4/1
f 67/4/1 65/4/1 63/4/1
f 67/4/1 66/4/1 65/4/1
f 68/4/1 66/4/1 67/4/1
f 71/1/1 70/1/1 69/1/1
f 72/1/1 70/1/1 71/1/1
f 75/4/1 74/4/1 73/4/1
f 76/4/1 74/4/1 75/4/1
f 80/4/1 78/4/1 77/4/1
f 81/4/1 80/4/1 79/4/1
f 82/4/1 78/4/1 80/4/1
f 82/4/1 80/4/1 81/4/1
f 85/4/1 84/4/1 83/4/1
f 86/4/1 84/4/1 85/4/1
f 89/4/1 88/4/1 87/4/1
f 90/4/1 88/4/1 89/4/1
f 91/4/1 88/4/1 90/4/1
f 92/4/1 88/4/1 91/4/1
f 95/5/1 94/5/1 93/5/1
f 96/5/1 94/5/1 95/5/1
f 99/4/1 98/4/1 97/4/1
f 100/4/1 98/4/1 99/4/1
f 103/4/1 102/4/1 101/4/1
f 104/4/1 102/4/1 103/4/1
f 105/4/2 106/4/2 107/4/2
f 107/4/2 106/4/2 108/4/2
f 108/4/2 106/4/2 109/4/2
f 109/4/2 106/4/2 110/4/2
f 113/4/2 114/4/2 115/4/2
f 111/5/2 112/5/2 117/5/2
f 117/5/2 112/5/2 118/5/2
f 115/4/2 116/4/2 119/4/2
f 113/4/2 115/4/2 119/4/2
f 119/4/2 116/4/2 120/4/2
f 121/4/2 122/4/2 123/4/2
f 123/4/2 122/4/2 124/4/2
f 125/4/2 126/4/2 128/4/2
f 127/4/2 128/4/2 129/4/2
f 128/4/2 126/4/2 130/4/2
f 129/4/2 128/4/2 130/4/2
f 131/4/2 132/4/2 133/4/2
f 133/4/2 132/4/2 134/4/2
f 135/1/2 136/1/2 137/1/2
f 137/1/2 136/1/2 138/1/2
f 139/4/2 140/4/2 141/4/2
f 141/4/2 140/4/2 142/4/2
f 143/4/2 144/4/2 145/4/2
f 145/4/2 144/4/2 146/4/2
f 147/4/2 148/4/2 149/4/2
f 149/4/2 148/4/2 150/4/2
f 150/4/2 148/4/2 151/4/2
f 151/4/2 148/4/2 152/4/2
f 153/5/2 154/5/2 155/5/2
f 155/5/2 154/5/2 156/5/2
f 158/1/2 159/1/2 163/1/2
f 159/2/2 160/2/2 163/2/2
f 160/1/2 161/1/2 164/1/2
f 163/2/2 160/2/2 164/2/2
f 157/2/2 158/2/2 165/2/2
f 158/1/2 163/1/2 166/1/2
f 165/2/2 158/2/2 166/2/2
f 166/1/2 163/1/2 167/1/2
f 164/1/2 161/1/2 168/1/2
f 161/2/2 162/2/2 169/2/2
f 168/1/2 161/1/2 169/1/2
f 169/2/2 162/2/2 170/2/2
f 166/3/2 167/3/2 171/3/2
f 165/3/2 166/3/2 171/3/2
f 171/3/2 167/3/2 172/3/2
f 169/3/2 170/3/2 173/3/2
f 168/3/2 169/3/2 173/3/2
f 173/3/2 170/3/2 174/3/2
f 171/2/2 172/2/2 175/2/2
f 175/2/2 172/2/2 176/2/2
f 173/2/2 174/2/2 177/2/2
f 177/2/2 174/2/2 178/2/2
f 179/4/2 180/4/2 181/4/2
f 181/4/2 180/4/2 182/4/2
f 183/4/2 184/4/2 187/4/2
f 185/4/2 186/4/2 187/4/2
f 184/4/2 185/4/2 187/4/2
f 187/4/2 186/4/2 188/4/2
f 183/4/2 187/4/2 189/4/2
f 188/4/2 186/4/2 190/4/2
f 183/4/2 189/4/2 191/4/2
f 189/4/2 190/4/2 191/4/2
f 190/4/2 186/4/2 192/4/2
f 191/4/2 190/4/2 192/4/2
f 193/4/2 194/4/2 195/4/2
f 195/4/2 194/4/2 196/4/2
f 197/4/2 198/4/2 199/4/2
f 199/4/2 198/4/2 200/4/2
f 201/4/2 202/4/2 203/4/2
f 203/4/2 202/4/2 204/4/2
f 205/4/2 206/4/2 207/4/2
f 207/4/2 206/4/2 208/4/2
f 211/5/3 210/5/3 209/5/3
f 212/5/3 210/5/3 211/5/3
f 215/1/3 214/1/3 213/1/3
f 216/1/3 214/1/3 215/1/3
f 219/5/3 218/5/3 217/5/3
f 220/5/3 218/5/3 219/5/3
f 223/4/3 222/4/3 221/4/3
f 224/4/3 222/4/3 223/4/3
f 225/4/3 223/4/3 221/4/3
f 226/4/3 222/4/3 224/4/3
f 227/4/3 225/4/3 221/4/3
f 227/4/3 226/4/3 225/4/3
f 228/4/3 226/4/3 227/4/3
f 229/4/3 227/4/3 221/4/3
f 230/4/3 226/4/3 228/4/3
f 231/4/3 226/4/3 230/4/3
f 231/4/3 230/4/3 229/4/3
f 232/4/3 222/4/3 226/4/3
f 232/4/3 226/4/3 231/4/3
f 233/4/3 231/4/3 229/4/3
f 234/4/3 222/4/3 232/4/3
f 235/4/3 233/4/3 229/4/3
f 235/4/3 234/4/3 233/4/3
f 235/4/3 229/4/3 221/4/3
f 236/4/3 222/4/3 234/4/3
f 236/4/3 234/4/3 235/4/3
f 239/4/3 238/4/3 237/4/3
f 240/4/3 238/4/3 239/4/3
f 245/2/3 242/2/3 241/2/3
f 246/3/3 243/3/3 242/3/3
f 246/2/3 242/2/3 245/2/3
f 247/1/3 246/1/3 245/1/3
f 248/3/3 243/3/3 246/3/3
f 248/1/3 246/1/3 247/1/3
f 249/2/3 244/2/3 243/2/3
f 250/2/3 244/2/3 249/2/3
f 251/2/3 248/2/3 247/2/3
f 252/3/3 243/3/3 248/3/3
f 252/2/3 248/2/3 251/2/3
f 253/2/3 249/2/3 243/2/3
f 254/4/3 250/4/3 249/4/3
f 254/2/3 249/2/3 253/2/3
f 255/1/3 252/1/3 251/1/3
f 256/3/3 243/3/3 252/3/3
f 256/1/3 252/1/3 255/1/3
f 257/2/3 253/2/3 243/2/3
f 258/2/3 253/2/3 257/2/3
f 259/2/3 253/2/3 258/2/3
f 260/2/3 253/2/3 259/2/3
f 261/2/3 253/2/3 260/2/3
f 262/2/3 253/2/3 261/2/3
f 263/2/3 253/2/3 262/2/3
f 264/2/3 253/2/3 263/2/3
f 265/2/3 253/2/3 264/2/3
f 266/4/3 254/4/3 253/4/3
f 266/2/3 253/2/3 265/2/3
f 267/2/3 257/2/3 243/2/3
f 267/1/3 258/1/3 257/1/3
f 268/2/3 259/2/3 258/2/3
f 268/1/3 258/1/3 267/1/3
f 269/1/3 260/1/3 259/1/3
f 269/2/3 259/2/3 268/2/3
f 270/2/3 261/2/3 260/2/3
f 270/1/3 260/1/3 269/1/3
f 271/1/3 262/1/3 261/1/3
f 271/2/3 261/2/3 270/2/3
f 272/2/3 263/2/3 262/2/3
f 272/1/3 262/1/3 271/1/3
f 273/1/3 264/1/3 263/1/3
f 273/2/3 263/2/3 272/2/3
f 274/2/3 265/2/3 264/2/3
f 274/1/3 264/1/3 273/1/3
f 275/4/3 266/4/3 265/4/3
f 275/2/3 265/2/3 274/2/3
f 276/4/3 254/4/3 266/4/3
f 276/4/3 266/4/3 275/4/3
f 277/2/3 256/2/3 255/2/3
f 278/3/3 243/3/3 256/3/3
f 278/2/3 256/2/3 277/2/3
f 279/1/3 278/1/3 277/1/3
f 280/3/3 243/3/3 278/3/3
f 280/1/3 278/1/3 279/1/3
f 281/2/3 273/2/3 272/2/3
f 281/4/3 254/4/3 276/4/3
f 281/2/3 275/2/3 274/2/3
f 281/2/3 274/2/3 273/2/3
f 281/2/3 276/2/3 275/2/3
f 281/2/3 272/2/3 271/2/3
f 281/2/3 271/2/3 270/2/3
f 281/2/3 270/2/3 269/2/3
f 281/2/3 269/2/3 268/2/3
f 281/2/3 268/2/3 267/2/3
f 282/4/3 250/4/3 254/4/3
f 282/4/3 254/4/3 281/4/3
f 283/2/3 282/2/3 281/2/3
f 283/4/3 250/4/3 282/4/3
f 284/4/3 250/4/3 283/4/3
f 285/2/3 280/2/3 279/2/3
f 286/3/3 243/3/3 280/3/3
f 286/2/3 280/2/3 285/2/3
f 287/1/3 286/1/3 285/1/3
f 288/3/3 243/3/3 286/3/3
f 288/1/3 286/1/3 287/1/3
f 289/2/3 288/2/3 287/2/3
f 290/3/3 243/3/3 288/3/3
f 290/2/3 288/2/3 289/2/3
f 291/2/3 281/2/3 267/2/3
f 291/3/3 243/3/3 290/3/3
f 291/2/3 267/2/3 243/2/3
f 291/2/3 283/2/3 281/2/3
f 291/2/3 284/2/3 283/2/3
f 292/2/3 284/2/3 291/2/3
f 295/4/3 294/4/3 293/4/3
f 296/4/3 294/4/3 295/4/3
f 299/4/3 298/4/3 297/4/3
f 300/4/3 298/4/3 299/4/3
f 303/4/3 302/4/3 301/4/3
f 304/4/3 302/4/3 303/4/3
f 307/4/3 306/4/3 305/4/3
f 308/4/3 306/4/3 307/4/3
f 311/4/3 310/4/3 309/4/3
f 313/4/3 312/4/3 311/4/3
f 317/4/3 316/4/3 315/4/3
f 318/4/3 311/4/3 309/4/3
f 318/4/3 313/4/3 311/4/3
f 318/4/3 314/4/3 313/4/3
f 319/4/3 314/4/3 318/4/3
f 320/4/3 317/4/3 315/4/3
f 321/4/3 317/4/3 320/4/3
f 322/4/3 317/4/3 321/4/3
f 323/4/3 317/4/3 322/4/3
f 326/4/3 325/4/3 324/4/3
f 327/4/3 325/4/3 326/4/3
f 330/4/3 329/4/3 328/4/3
f 331/4/3 329/4/3 330/4/3
f 336/4/3 333/4/3 332/4/3
f 336/4/3 335/4/3 334/4/3
f 336/4/3 334/4/3 333/4/3
f 339/4/3 336/4/3 332/4/3
f 340/4/3 336/4/3 339/4/3
f 341/4/3 338/4/3 337/4/3
f 342/4/3 338/4/3 341/4/3
f 343/4/3 341/4/3 337/4/3
f 344/4/3 341/4/3 343/4/3
f 345/4/3 343/4/3 337/4/3
f 346/4/3 343/4/3 345/4/3
f 349/4/3 348/4/3 347/4/3
f 350/4/3 348/4/3 349/4/3
f 353/4/3 352/4/3 351/4/3
f 354/4/3 352/4/3 353/4/3
f 357/4/3 356/4/3 355/4/3
f 358/4/3 356/4/3 357/4/3
f 361/4/3 360/4/3 359/4/3
f 362/4/3 360/4/3 361/4/3
f 365/4/3 364/4/3 363/4/3
f 366/4/3 364/4/3 365/4/3
f 367/4/4 368/4/4 369/4/4
f 369/4/4 368/4/4 370/4/4
f 371/4/4 372/4/4 373/4/4
f 373/4/4 372/4/4 374/4/4
f 375/4/4 376/4/4 377/4/4
f 377/4/4 376/4/4 378/4/4
f 379/4/4 380/4/4 381/4/4
f 381/4/4 380/4/4 382/4/4
f 383/4/4 384/4/4 385/4/4
f 385/4/4 384/4/4 386/4/4
f 387/4/4 388/4/4 389/4/4
f 389/4/4 388/4/4 390/4/4
f 391/4/4 392/4/4 393/4/4
f 393/4/4 392/4/4 394/4/4
f 395/4/4 396/4/4 397/4/4
f 397/4/4 398/4/4 399/4/4
f 401/4/4 402/4/4 403/4/4
f 395/4/4 397/4/4 404/4/4
f 397/4/4 399/4/4 404/4/4
f 399/4/4 400/4/4 404/4/4
f 404/4/4 400/4/4 405/4/4
f 401/4/4 403/4/4 406/4/4
f 406/4/4 403/4/4 407/4/4
f 407/4/4 403/4/4 408/4/4
f 408/4/4 403/4/4 409/4/4
f 410/4/4 411/4/4 412/4/4
f 412/4/4 411/4/4 413/4/4
f 414/4/4 415/4/4 418/4/4
f 416/4/4 417/4/4 418/4/4
f 415/4/4 416/4/4 418/4/4
f 414/4/4 418/4/4 421/4/4
f 421/4/4 418/4/4 422/4/4
f 419/4/4 420/4/4 423/4/4
f 423/4/4 420/4/4 424/4/4
f 419/4/4 423/4/4 425/4/4
f 425/4/4 423/4/4 426/4/4
f 419/4/4 425/4/4 427/4/4
f 427/4/4 425/4/4 428/4/4
f 429/4/4 430/4/4 431/4/4
f 431/4/4 430/4/4 432/4/4
f 433/2/4 434/2/4 437/2/4
f 434/3/4 435/3/4 438/3/4
f 437/2/4 434/2/4 438/2/4
f 437/1/4 438/1/4 439/1/4
f 438/3/4 435/3/4 440/3/4
f 439/1/4 438/1/4 440/1/4
f 439/2/4 440/2/4 441/2/4
f 440/3/4 435/3/4 442/3/4
f 441/2/4 440/2/4 442/2/4
f 441/1/4 442/1/4 443/1/4
f 442/3/4 435/3/4 444/3/4
f 443/1/4 442/1/4 444/1/4
f 443/2/4 444/2/4 445/2/4
f 444/3/4 435/3/4 446/3/4
f 445/2/4 444/2/4 446/2/4
f 445/1/4 446/1/4 447/1/4
f 446/3/4 435/3/4 448/3/4
f 447/1/4 446/1/4 448/1/4
f 447/2/4 448/2/4 449/2/4
f 448/3/4 435/3/4 450/3/4
f 449/2/4 448/2/4 450/2/4
f 449/1/4 450/1/4 451/1/4
f 450/3/4 435/3/4 452/3/4
f 451/1/4 450/1/4 452/1/4
f 451/2/4 452/2/4 453/2/4
f 452/3/4 435/3/4 454/3/4
f 453/2/4 452/2/4 454/2/4
f 435/2/4 436/2/4 455/2/4
f 454/3/4 435/3/4 455/3/4
f 455/2/4 436/2/4 456/2/4
f 457/4/4 458/4/4 459/4/4
f 459/4/4 458/4/4 460/4/4
f 461/4/4 462/4/4 463/4/4
f 463/4/4 462/4/4 464/4/4
f 469/4/5 466/4/5 465/4/5
f 470/4/5 466/4/5 469/4/5
f 471/4/5 468/4/5 467/4/5
f 472/4/5 468/4/5 471/4/5
f 483/2/5 474/2/5 473/2/5
f 483/1/5 475/1/5 474/1/5
f 484/2/5 476/2/5 475/2/5
f 484/1/5 475/1/5 483/1/5
f 485/1/5 477/1/5 476/1/5
f 485/2/5 476/2/5 484/2/5
f 486/2/5 478/2/5 477/2/5
f 486/1/5 477/1/5 485/1/5
f 487/1/5 479/1/5 478/1/5
f 487/2/5 478/2/5 486/2/5
f 488/2/5 480/2/5 479/2/5
f 488/1/5 479/1/5 487/1/5
f 489/1/5 481/1/5 480/1/5
f 489/2/5 480/2/5 488/2/5
f 490/2/5 482/2/5 481/2/5
f 490/1/5 481/1/5 489/1/5
f 491/2/5 489/2/5 488/2/5
f 491/2/5 488/2/5 487/2/5
f 491/2/5 490/2/5 489/2/5
f 491/2/5 487/2/5 486/2/5
f 491/2/5 486/2/5 485/2/5
f 491/2/5 485/2/5 484/2/5
f 491/2/5 484/2/5 483/2/5
f 491/2/5 483/2/5 473/2/5
f 492/2/5 490/2/5 491/2/5
f 493/2/5 490/2/5 492/2/5
f 494/2/5 482/2/5 490/2/5
f 494/2/5 490/2/5 493/2/5
f 495/1/5 492/1/5 491/1/5
f 496/2/5 493/2/5 492/2/5
f 496/1/5 492/1/5 495/1/5
f 497/2/5 493/2/5 496/2/5
f 498/2/5 493/2/5 497/2/5
f 499/2/5 493/2/5 498/2/5
f 500/1/5 494/1/5 493/1/5
f 500/2/5 493/2/5 499/2/5
f 501/1/5 494/1/5 500/1/5
f 502/2/5 496/2/5 495/2/5
f 502/2/5 497/2/5 496/2/5
f 503/2/5 499/2/5 498/2/5
f 504/2/5 499/2/5 503/2/5
f 505/2/5 501/2/5 500/2/5
f 506/2/5 502/2/5 495/2/5
f 506/2/5 505/2/5 504/2/5
f 506/2/5 504/2/5 503/2/5
f 506/2/5 503/2/5 502/2/5
f 507/2/5 505/2/5 506/2/5
f 508/2/5 501/2/5 505/2/5
f 508/2/5 505/2/5 507/2/5
f 509/2/5 501/2/5 508/2/5
f 510/1/5 507/1/5 506/1/5
f 511/2/5 508/2/5 507/2/5
f 511/1/5 507/1/5 510/1/5
f 512/1/5 509/1/5 508/1/5
f 512/2/5 508/2/5 511/2/5
f 513/1/5 509/1/5 512/1/5
f 514/2/5 511/2/5 510/2/5
f 514/2/5 512/2/5 511/2/5
f 514/2/5 513/2/5 512/2/5
f 515/2/5 513/2/5 514/2/5
f 516/2/5 513/2/5 515/2/5
f 517/2/5 513/2/5 516/2/5
f 518/2/5 513/2/5 517/2/5
f 519/2/5 513/2/5 518/2/5
f 520/2/5 513/2/5 519/2/5
f 521/2/5 513/2/5 520/2/5
f 522/2/5 514/2/5 510/2/5
f 523/1/5 515/1/5 514/1/5
f 523/2/5 514/2/5 522/2/5
f 524/2/5 516/2/5 515/2/5
f 524/1/5 515/1/5 523/1/5
f 525/1/5 517/1/5 516/1/5
f 525/2/5 516/2/5 524/2/5
f 526/2/5 518/2/5 517/2/5
f 526/1/5 517/1/5 525/1/5
f 527/1/5 519/1/5 518/1/5
f 527/2/5 518/2/5 526/2/5
f 528/2/5 520/2/5 519/2/5
f 528/1/5 519/1/5 527/1/5
f 529/1/5 521/1/5 520/1/5
f 529/2/5 520/2/5 528/2/5
f 530/2/5 513/2/5 521/2/5
f 530/1/5 521/1/5 529/1/5
f 531/2/5 513/2/5 530/2/5
f 536/4/5 533/4/5 532/4/5
f 537/4/5 533/4/5 536/4/5
f 538/4/5 535/4/5 534/4/5
f 539/4/5 535/4/5 538/4/5
f 542/4/5 541/4/5 540/4/5
f 543/4/5 541/4/5 542/4/5
f 544/4/5 541/4/5 543/4/5
f 545/4/5 541/4/5 544/4/5
f 546/4/5 542/4/5 540/4/5
f 547/4/5 542/4/5 546/4/5
f 548/4/5 541/4/5 545/4/5
f 549/4/5 541/4/5 548/4/5
f 554/4/5 551/4/5 550/4/5
f 555/4/5 553/4/5 552/4/5
f 556/4/5 554/4/5 550/4/5
f 556/4/5 555/4/5 554/4/5
f 557/4/5 553/4/5 555/4/5
f 557/4/5 555/4/5 556/4/5
f 560/1/5 559/1/5 558/1/5
f 561/1/5 559/1/5 560/1/5
f 566/5/5 563/5/5 562/5/5
f 567/5/5 563/5/5 566/5/5
f 568/5/5 565/5/5 564/5/5
f 569/5/5 565/5/5 568/5/5
f 574/4/5 571/4/5 570/4/5
f 575/4/5 571/4/5 574/4/5
f 576/4/5 573/4/5 572/4/5
f 577/4/5 573/4/5 576/4/5
f 580/4/5 579/4/5 578/4/5
f 581/4/5 579/4/5 580/4/5
f 583/4/5 582/4/5 581/4/5
f 584/4/5 582/4/5 583/4/5
f 586/4/5 585/4/5 584/4/5
f 587/4/5 585/4/5 586/4/5
f 592/4/5 589/4/5 588/4/5
f 593/4/5 589/4/5 592/4/5
f 594/4/5 591/4/5 590/4/5
f 595/4/5 591/4/5 594/4/5
f 598/4/5 597/4/5 596/4/5
f 599/4/5 597/4/5 598/4/5
f 600/4/6 601/4/6 604/4/6
f 604/4/6 601/4/6 605/4/6
f 602/4/6 603/4/6 606/4/6
f 606/4/6 603/4/6 607/4/6
f 608/4/6 609/4/6 612/4/6
f 612/4/6 609/4/6 613/4/6
f 610/4/6 611/4/6 614/4/6
f 614/4/6 611/4/6 615/4/6
f 616/4/6 617/4/6 618/4/6
f 618/4/6 617/4/6 619/4/6
f 619/4/6 620/4/6 621/4/6
f 621/4/6 620/4/6 622/4/6
f 623/1/6 624/1/6 625/1/6
f 625/1/6 624/1/6 626/1/6
f 627/4/6 628/4/6 629/4/6
f 629/4/6 628/4/6 630/4/6
f 630/4/6 631/4/6 632/4/6
f 632/4/6 631/4/6 633/4/6
f 633/4/6 634/4/6 635/4/6
f 635/4/6 634/4/6 636/4/6
f 637/4/6 638/4/6 639/4/6
f 639/4/6 638/4/6 640/4/6
f 640/4/6 641/4/6 642/4/6
f 642/4/6 641/4/6 643/4/6
f 644/4/6 645/4/6 646/4/6
f 646/4/6 645/4/6 647/4/6
f 648/5/6 649/5/6 652/5/6
f 652/5/6 649/5/6 653/5/6
f 650/5/6 651/5/6 654/5/6
f 654/5/6 651/5/6 655/5/6
f 656/4/6 657/4/6 660/4/6
f 660/4/6 657/4/6 661/4/6
f 658/4/6 659/4/6 662/4/6
f 662/4/6 659/4/6 663/4/6
f 664/4/6 665/4/6 668/4/6
f 668/4/6 665/4/6 669/4/6
f 666/4/6 667/4/6 670/4/6
f 670/4/6 667/4/6 671/4/6
f 672/4/6 673/4/6 676/4/6
f 676/4/6 673/4/6 677/4/6
f 674/4/6 675/4/6 678/4/6
f 678/4/6 675/4/6 679/4/6
f 680/4/6 681/4/6 682/4/6
f 682/4/6 681/4/6 683/4/6
f 680/4/6 682/4/6 684/4/6
f 683/4/6 681/4/6 685/4/6
f 680/4/6 684/4/6 686/4/6
f 684/4/6 685/4/6 686/4/6
f 685/4/6 681/4/6 687/4/6
f 686/4/6 685/4/6 687/4/6
f 688/4/6 689/4/6 690/4/6
f 690/4/6 689/4/6 691/4/6
