# MagicaVoxel @ Ephtracy

# group
o 

# material
mtllib tree2.mtl
usemtl palette

# normals
vn -1 0 0
vn 1 0 0
vn 0 0 1
vn 0 0 -1
vn 0 -1 0
vn 0 1 0

# texcoords
vt 0.310547 0.5
vt 0.634766 0.5

# verts
v -2.23517e-08 1.4 0.8
v -2.23517e-08 1.4 0.2
v -2.23517e-08 1.5 0.8
v -2.23517e-08 1.5 0.6
v -2.23517e-08 1.5 0.4
v -2.23517e-08 1.5 0.2
v -2.23517e-08 1.6 0.5
v -2.23517e-08 1.6 0.4
v -2.23517e-08 1.7 0.6
v -2.23517e-08 1.7 0.5
v 0.1 1.5 0.7
v 0.1 1.5 0.6
v 0.1 1.5 0.4
v 0.1 1.5 0.2
v 0.1 1.6 0.5
v 0.1 1.6 0.4
v 0.1 1.7 0.6
v 0.1 1.7 0.5
v 0.1 1.7 0.3
v 0.1 1.7 0.2
v 0.1 1.8 0.7
v 0.1 1.8 0.6
v 0.1 1.9 0.6
v 0.1 1.9 0.3
v 0.2 1.2 0.6
v 0.2 1.2 0.4
v 0.2 1.4 0.6
v 0.2 1.4 0.4
v 0.2 1.8 0.7
v 0.2 1.8 0.6
v 0.2 1.9 0.7
v 0.2 1.9 0.6
v 0.2 1.9 0.4
v 0.2 2.1 0.6
v 0.2 2.1 0.4
v 0.3 1.6 0.3
v 0.3 1.6 0.2
v 0.3 1.7 0.3
v 0.3 1.7 0.2
v 0.3 1.8 0.4
v 0.3 1.8 0.3
v 0.3 1.9 0.4
v 0.3 1.9 0.3
v 0.4 1.2 0.6
v 0.4 1.2 0.4
v 0.4 1.4 0.6
v 0.4 1.4 0.4
v 0.4 1.5 0.3
v 0.4 1.5 0.2
v 0.4 1.6 0.3
v 0.4 1.6 0.2
v 0.4 1.7 0.7
v 0.4 1.7 0.6
v 0.4 1.9 0.7
v 0.4 1.9 0.6
v 0.4 1.9 0.4
v 0.4 2.1 0.6
v 0.4 2.1 0.4
v 0.5 1.5 0.7
v 0.5 1.5 0.6
v 0.5 1.6 0.6
v 0.5 1.6 0.5
v 0.5 1.7 0.7
v 0.5 1.7 0.6
v 0.5 1.7 0.5
v 0.5 1.7 0.3
v 0.5 1.8 0.4
v 0.5 1.8 0.3
v 0.5 1.9 0.6
v 0.5 1.9 0.4
v 0.6 1.4 0.8
v 0.6 1.4 0.2
v 0.6 1.5 0.8
v 0.6 1.5 0.6
v 0.6 1.5 0.3
v 0.6 1.5 0.2
v 0.6 1.6 0.6
v 0.6 1.6 0.5
v 0.6 1.7 0.5
v 0.6 1.7 0.3
v -2.23517e-08 1.4 0.8
v -2.23517e-08 1.5 0.8
v 0.6 1.4 0.8
v 0.6 1.5 0.8
v 0.1 1.5 0.7
v 0.1 1.8 0.7
v 0.2 1.8 0.7
v 0.2 1.9 0.7
v 0.4 1.7 0.7
v 0.4 1.9 0.7
v 0.5 1.5 0.7
v 0.5 1.7 0.7
v -2.23517e-08 1.5 0.6
v -2.23517e-08 1.7 0.6
v 0.1 1.5 0.6
v 0.1 1.7 0.6
v 0.1 1.8 0.6
v 0.1 1.9 0.6
v 0.2 1.2 0.6
v 0.2 1.4 0.6
v 0.2 1.8 0.6
v 0.2 1.9 0.6
v 0.2 2.1 0.6
v 0.4 1.2 0.6
v 0.4 1.4 0.6
v 0.4 1.7 0.6
v 0.4 1.9 0.6
v 0.4 2.1 0.6
v 0.5 1.5 0.6
v 0.5 1.6 0.6
v 0.5 1.7 0.6
v 0.5 1.9 0.6
v 0.6 1.5 0.6
v 0.6 1.6 0.6
v 0.5 1.6 0.5
v 0.5 1.7 0.5
v 0.6 1.6 0.5
v 0.6 1.7 0.5
v -2.23517e-08 1.6 0.5
v -2.23517e-08 1.7 0.5
v 0.1 1.6 0.5
v 0.1 1.7 0.5
v -2.23517e-08 1.5 0.4
v -2.23517e-08 1.6 0.4
v 0.1 1.5 0.4
v 0.1 1.6 0.4
v 0.2 1.2 0.4
v 0.2 1.4 0.4
v 0.2 1.9 0.4
v 0.2 2.1 0.4
v 0.3 1.8 0.4
v 0.3 1.9 0.4
v 0.4 1.2 0.4
v 0.4 1.4 0.4
v 0.4 1.9 0.4
v 0.4 2.1 0.4
v 0.5 1.8 0.4
v 0.5 1.9 0.4
v 0.1 1.7 0.3
v 0.1 1.9 0.3
v 0.3 1.6 0.3
v 0.3 1.7 0.3
v 0.3 1.8 0.3
v 0.3 1.9 0.3
v 0.4 1.5 0.3
v 0.4 1.6 0.3
v 0.5 1.7 0.3
v 0.5 1.8 0.3
v 0.6 1.5 0.3
v 0.6 1.7 0.3
v -2.23517e-08 1.4 0.2
v -2.23517e-08 1.5 0.2
v 0.1 1.5 0.2
v 0.1 1.7 0.2
v 0.3 1.6 0.2
v 0.3 1.7 0.2
v 0.4 1.5 0.2
v 0.4 1.6 0.2
v 0.6 1.4 0.2
v 0.6 1.5 0.2
v 0.2 1.2 0.6
v 0.4 1.2 0.6
v 0.2 1.2 0.4
v 0.4 1.2 0.4
v -2.23517e-08 1.4 0.8
v 0.6 1.4 0.8
v 0.2 1.4 0.6
v 0.4 1.4 0.6
v 0.2 1.4 0.4
v 0.4 1.4 0.4
v -2.23517e-08 1.4 0.2
v 0.6 1.4 0.2
v -2.23517e-08 1.5 0.8
v 0.6 1.5 0.8
v 0.1 1.5 0.7
v 0.5 1.5 0.7
v -2.23517e-08 1.5 0.6
v 0.1 1.5 0.6
v 0.5 1.5 0.6
v 0.6 1.5 0.6
v -2.23517e-08 1.5 0.4
v 0.1 1.5 0.4
v 0.4 1.5 0.3
v 0.6 1.5 0.3
v -2.23517e-08 1.5 0.2
v 0.1 1.5 0.2
v 0.4 1.5 0.2
v 0.6 1.5 0.2
v 0.5 1.6 0.6
v 0.6 1.6 0.6
v -2.23517e-08 1.6 0.5
v 0.1 1.6 0.5
v 0.5 1.6 0.5
v 0.6 1.6 0.5
v -2.23517e-08 1.6 0.4
v 0.1 1.6 0.4
v 0.3 1.6 0.3
v 0.4 1.6 0.3
v 0.3 1.6 0.2
v 0.4 1.6 0.2
v 0.4 1.7 0.7
v 0.5 1.7 0.7
v -2.23517e-08 1.7 0.6
v 0.1 1.7 0.6
v 0.4 1.7 0.6
v 0.5 1.7 0.6
v -2.23517e-08 1.7 0.5
v 0.1 1.7 0.5
v 0.5 1.7 0.5
v 0.6 1.7 0.5
v 0.1 1.7 0.3
v 0.3 1.7 0.3
v 0.5 1.7 0.3
v 0.6 1.7 0.3
v 0.1 1.7 0.2
v 0.3 1.7 0.2
v 0.1 1.8 0.7
v 0.2 1.8 0.7
v 0.1 1.8 0.6
v 0.2 1.8 0.6
v 0.3 1.8 0.4
v 0.5 1.8 0.4
v 0.3 1.8 0.3
v 0.5 1.8 0.3
v 0.2 1.9 0.7
v 0.4 1.9 0.7
v 0.1 1.9 0.6
v 0.2 1.9 0.6
v 0.4 1.9 0.6
v 0.5 1.9 0.6
v 0.2 1.9 0.4
v 0.3 1.9 0.4
v 0.4 1.9 0.4
v 0.5 1.9 0.4
v 0.1 1.9 0.3
v 0.3 1.9 0.3
v 0.2 2.1 0.6
v 0.4 2.1 0.6
v 0.2 2.1 0.4
v 0.4 2.1 0.4

# faces
f 3/2/1 2/2/1 1/2/1
f 4/2/1 2/2/1 3/2/1
f 5/2/1 2/2/1 4/2/1
f 6/2/1 2/2/1 5/2/1
f 7/2/1 5/2/1 4/2/1
f 8/2/1 5/2/1 7/2/1
f 9/2/1 7/2/1 4/2/1
f 10/2/1 7/2/1 9/2/1
f 16/2/1 14/2/1 13/2/1
f 17/2/1 12/2/1 11/2/1
f 18/2/1 16/2/1 15/2/1
f 19/2/1 14/2/1 16/2/1
f 19/2/1 16/2/1 18/2/1
f 20/2/1 14/2/1 19/2/1
f 21/2/1 17/2/1 11/2/1
f 21/2/1 18/2/1 17/2/1
f 21/2/1 19/2/1 18/2/1
f 22/2/1 19/2/1 21/2/1
f 23/2/1 19/2/1 22/2/1
f 24/2/1 19/2/1 23/2/1
f 27/1/1 26/1/1 25/1/1
f 28/1/1 26/1/1 27/1/1
f 31/2/1 30/2/1 29/2/1
f 32/2/1 30/2/1 31/2/1
f 34/2/1 33/2/1 32/2/1
f 35/2/1 33/2/1 34/2/1
f 36/2/2 37/2/2 38/2/2
f 38/2/2 37/2/2 39/2/2
f 40/2/2 41/2/2 42/2/2
f 42/2/2 41/2/2 43/2/2
f 44/1/2 45/1/2 46/1/2
f 46/1/2 45/1/2 47/1/2
f 48/2/2 49/2/2 50/2/2
f 50/2/2 49/2/2 51/2/2
f 52/2/2 53/2/2 54/2/2
f 54/2/2 53/2/2 55/2/2
f 55/2/2 56/2/2 57/2/2
f 57/2/2 56/2/2 58/2/2
f 59/2/2 60/2/2 61/2/2
f 59/2/2 61/2/2 63/2/2
f 61/2/2 62/2/2 63/2/2
f 63/2/2 62/2/2 64/2/2
f 64/2/2 62/2/2 65/2/2
f 65/2/2 66/2/2 67/2/2
f 64/2/2 65/2/2 67/2/2
f 67/2/2 66/2/2 68/2/2
f 64/2/2 67/2/2 69/2/2
f 69/2/2 67/2/2 70/2/2
f 71/2/2 72/2/2 73/2/2
f 73/2/2 72/2/2 74/2/2
f 74/2/2 72/2/2 75/2/2
f 75/2/2 72/2/2 76/2/2
f 74/2/2 75/2/2 77/2/2
f 77/2/2 75/2/2 78/2/2
f 78/2/2 75/2/2 79/2/2
f 79/2/2 75/2/2 80/2/2
f 83/2/3 82/2/3 81/2/3
f 84/2/3 82/2/3 83/2/3
f 87/2/3 86/2/3 85/2/3
f 89/2/3 87/2/3 85/2/3
f 89/2/3 88/2/3 87/2/3
f 90/2/3 88/2/3 89/2/3
f 91/2/3 89/2/3 85/2/3
f 92/2/3 89/2/3 91/2/3
f 95/2/3 94/2/3 93/2/3
f 96/2/3 94/2/3 95/2/3
f 101/2/3 98/2/3 97/2/3
f 102/2/3 98/2/3 101/2/3
f 104/1/3 100/1/3 99/1/3
f 105/1/3 100/1/3 104/1/3
f 107/2/3 103/2/3 102/2/3
f 108/2/3 103/2/3 107/2/3
f 111/2/3 107/2/3 106/2/3
f 112/2/3 107/2/3 111/2/3
f 113/2/3 110/2/3 109/2/3
f 114/2/3 110/2/3 113/2/3
f 117/2/3 116/2/3 115/2/3
f 118/2/3 116/2/3 117/2/3
f 119/2/4 120/2/4 121/2/4
f 121/2/4 120/2/4 122/2/4
f 123/2/4 124/2/4 125/2/4
f 125/2/4 124/2/4 126/2/4
f 129/2/4 130/2/4 132/2/4
f 127/1/4 128/1/4 133/1/4
f 133/1/4 128/1/4 134/1/4
f 131/2/4 132/2/4 135/2/4
f 132/2/4 130/2/4 135/2/4
f 135/2/4 130/2/4 136/2/4
f 131/2/4 135/2/4 137/2/4
f 137/2/4 135/2/4 138/2/4
f 139/2/4 140/2/4 142/2/4
f 142/2/4 140/2/4 143/2/4
f 143/2/4 140/2/4 144/2/4
f 141/2/4 142/2/4 146/2/4
f 142/2/4 143/2/4 146/2/4
f 146/2/4 143/2/4 147/2/4
f 145/2/4 146/2/4 147/2/4
f 147/2/4 143/2/4 148/2/4
f 145/2/4 147/2/4 149/2/4
f 149/2/4 147/2/4 150/2/4
f 151/2/4 152/2/4 153/2/4
f 153/2/4 154/2/4 155/2/4
f 155/2/4 154/2/4 156/2/4
f 151/2/4 153/2/4 157/2/4
f 153/2/4 155/2/4 157/2/4
f 157/2/4 155/2/4 158/2/4
f 151/2/4 157/2/4 159/2/4
f 159/2/4 157/2/4 160/2/4
f 163/1/5 162/1/5 161/1/5
f 164/1/5 162/1/5 163/1/5
f 167/2/5 166/2/5 165/2/5
f 168/2/5 166/2/5 167/2/5
f 169/2/5 167/2/5 165/2/5
f 170/2/5 166/2/5 168/2/5
f 171/2/5 169/2/5 165/2/5
f 171/2/5 170/2/5 169/2/5
f 172/2/5 166/2/5 170/2/5
f 172/2/5 170/2/5 171/2/5
f 173/2/6 174/2/6 175/2/6
f 175/2/6 174/2/6 176/2/6
f 173/2/6 175/2/6 177/2/6
f 177/2/6 175/2/6 178/2/6
f 176/2/6 174/2/6 179/2/6
f 179/2/6 174/2/6 180/2/6
f 181/2/6 182/2/6 185/2/6
f 185/2/6 182/2/6 186/2/6
f 183/2/6 184/2/6 187/2/6
f 187/2/6 184/2/6 188/2/6
f 189/2/6 190/2/6 193/2/6
f 193/2/6 190/2/6 194/2/6
f 191/2/6 192/2/6 195/2/6
f 195/2/6 192/2/6 196/2/6
f 197/2/6 198/2/6 199/2/6
f 199/2/6 198/2/6 200/2/6
f 201/2/6 202/2/6 205/2/6
f 205/2/6 202/2/6 206/2/6
f 203/2/6 204/2/6 207/2/6
f 207/2/6 204/2/6 208/2/6
f 209/2/6 210/2/6 213/2/6
f 213/2/6 210/2/6 214/2/6
f 211/2/6 212/2/6 215/2/6
f 215/2/6 212/2/6 216/2/6
f 217/2/6 218/2/6 219/2/6
f 219/2/6 218/2/6 220/2/6
f 221/2/6 222/2/6 223/2/6
f 223/2/6 222/2/6 224/2/6
f 225/2/6 226/2/6 228/2/6
f 228/2/6 226/2/6 229/2/6
f 227/2/6 228/2/6 231/2/6
f 229/2/6 230/2/6 233/2/6
f 233/2/6 230/2/6 234/2/6
f 231/2/6 232/2/6 235/2/6
f 227/2/6 231/2/6 235/2/6
f 235/2/6 232/2/6 236/2/6
f 237/2/6 238/2/6 239/2/6
f 239/2/6 238/2/6 240/2/6
